<svg xmlns="http://www.w3.org/2000/svg" width="250" height="270" viewBox="0 0 250 270">
  <defs>
    <linearGradient id="ai-avatar-a" x1="0%" x2="99.999%" y1="50.002%" y2="50.002%">
      <stop offset="0%" stop-color="#030D13"/>
      <stop offset="100%" stop-color="#0A2E45"/>
    </linearGradient>
  </defs>
  <g fill="none" fill-rule="evenodd" transform="translate(43 17)">
    <path d="M19.677,116.581 C42.694,122.886 48.132,121.12 52.233,127.291 C52.705,127.999 55.11,131.618 54.628,136.265 C54.244,139.967 52.183,142.823 50.885,144.08 C43,151.713 21.303,142.375 8.876,132.162 C6.167,129.936 -1.101,123.962 0.363,119.719 C0.962,117.98 2.826,117.116 4.163,116.519 C10.075,113.874 16.206,115.631 19.677,116.581"/>
    <path fill="#E3E5E6" d="M19.677,116.581 C42.694,122.886 48.132,121.12 52.233,127.291 C52.705,127.999 55.11,131.618 54.628,136.265 C54.244,139.967 52.183,142.823 50.885,144.08 C43,151.713 21.303,142.375 8.876,132.162 C6.167,129.936 -1.101,123.962 0.363,119.719 C0.962,117.98 2.826,117.116 4.163,116.519 C10.075,113.874 16.206,115.631 19.677,116.581"/>
    <path d="M129.626,117.405 L46.959,117.405 C27.51,117.405 11.596,101.491 11.596,82.042 L11.596,63.671 C11.596,29.066 39.91,0.753 74.515,0.753 L102.07,0.753 C136.676,0.753 164.989,29.066 164.989,63.671 L164.989,82.042 C164.989,101.572 149.156,117.405 129.626,117.405 M88.293,34.097 C80.418,34.097 72.841,34.309 65.588,34.687 C46.604,35.674 31.117,48.82 28.758,65.919 L28.707,66.287 C28.011,71.335 30.793,76.256 35.723,78.693 C37.73,79.685 39.98,80.205 42.267,80.205 L134.318,80.205 C136.605,80.205 138.854,79.685 140.862,78.693 C145.792,76.256 148.574,71.335 147.878,66.286 C147.861,66.163 147.844,66.04 147.827,65.916 C145.46,48.753 129.859,35.659 110.802,34.676 C104.391,34.346 97.733,34.144 90.845,34.104 C89.99,34.099 89.141,34.097 88.293,34.097"/>
    <path fill="#E3E5E6" d="M129.626,117.405 L46.959,117.405 C27.51,117.405 11.596,101.491 11.596,82.042 L11.596,63.671 C11.596,29.066 39.91,0.753 74.515,0.753 L102.07,0.753 C136.676,0.753 164.989,29.066 164.989,63.671 L164.989,82.042 C164.989,101.572 149.156,117.405 129.626,117.405 M88.293,34.097 C80.418,34.097 72.841,34.309 65.588,34.687 C46.604,35.674 31.117,48.82 28.758,65.919 L28.707,66.287 C28.011,71.335 30.793,76.256 35.723,78.693 C37.73,79.685 39.98,80.205 42.267,80.205 L134.318,80.205 C136.605,80.205 138.854,79.685 140.862,78.693 C145.792,76.256 148.574,71.335 147.878,66.286 C147.861,66.163 147.844,66.04 147.827,65.916 C145.46,48.753 129.859,35.659 110.802,34.676 C104.391,34.346 97.733,34.144 90.845,34.104 C89.99,34.099 89.141,34.097 88.293,34.097"/>
    <path d="M134.318,80.205 L42.267,80.205 C39.98,80.205 37.73,79.685 35.723,78.693 C30.793,76.256 28.011,71.335 28.707,66.287 L28.758,65.919 C31.117,48.82 46.604,35.674 65.588,34.687 C72.841,34.309 80.418,34.097 88.293,34.097 C89.141,34.097 89.99,34.099 90.845,34.104 C97.733,34.144 104.391,34.346 110.802,34.676 C129.859,35.659 145.46,48.753 147.827,65.916 C147.844,66.04 147.861,66.163 147.878,66.286 C148.574,71.335 145.792,76.256 140.862,78.693 C138.854,79.685 136.605,80.205 134.318,80.205 M110.924,41.721 C101.338,41.721 93.566,49.493 93.566,59.079 C93.566,68.665 101.338,76.437 110.924,76.437 C120.51,76.437 128.281,68.665 128.281,59.079 C128.281,49.493 120.51,41.721 110.924,41.721 M64.032,41.721 C54.445,41.721 46.674,49.493 46.674,59.079 C46.674,68.665 54.445,76.437 64.032,76.437 C73.618,76.437 81.39,68.665 81.39,59.079 C81.39,49.493 73.618,41.721 64.032,41.721"/>
    <path fill="#1D1E1E" d="M134.318,80.205 L42.267,80.205 C39.98,80.205 37.73,79.685 35.723,78.693 C30.793,76.256 28.011,71.335 28.707,66.287 L28.758,65.919 C31.117,48.82 46.604,35.674 65.588,34.687 C72.841,34.309 80.418,34.097 88.293,34.097 C89.141,34.097 89.99,34.099 90.845,34.104 C97.733,34.144 104.391,34.346 110.802,34.676 C129.859,35.659 145.46,48.753 147.827,65.916 C147.844,66.04 147.861,66.163 147.878,66.286 C148.574,71.335 145.792,76.256 140.862,78.693 C138.854,79.685 136.605,80.205 134.318,80.205"/>
    <path fill="#FFF" d="M110.924 41.721C101.338 41.721 93.566 49.493 93.566 59.079 93.566 68.665 101.338 76.437 110.924 76.437 120.51 76.437 128.281 68.665 128.281 59.079 128.281 49.493 120.51 41.721 110.924 41.721M64.032 41.721C54.445 41.721 46.674 49.493 46.674 59.079 46.674 68.665 54.445 76.437 64.032 76.437 73.618 76.437 81.39 68.665 81.39 59.079 81.39 49.493 73.618 41.721 64.032 41.721"/>
    <path fill="#E9F5FF" d="M76.49,59.079 C76.49,65.959 70.913,71.538 64.032,71.538 C57.151,71.538 51.573,65.959 51.573,59.079 C51.573,52.198 57.151,46.62 64.032,46.62 C70.913,46.62 76.49,52.198 76.49,59.079"/>
    <path d="M74.496,59.079 C74.496,64.858 69.811,69.543 64.032,69.543 C58.252,69.543 53.567,64.858 53.567,59.079 C53.567,53.299 58.252,48.614 64.032,48.614 C69.811,48.614 74.496,53.299 74.496,59.079"/>
    <path fill="url(#ai-avatar-a)" d="M74.496,59.079 C74.496,64.858 69.811,69.543 64.032,69.543 C58.252,69.543 53.567,64.858 53.567,59.079 C53.567,53.299 58.252,48.614 64.032,48.614 C69.811,48.614 74.496,53.299 74.496,59.079"/>
    <path fill="#FFF" d="M70.735 56.367C70.735 58.508 69 60.244 66.859 60.244 64.718 60.244 62.982 58.508 62.982 56.367 62.982 54.227 64.718 52.491 66.859 52.491 69 52.491 70.735 54.227 70.735 56.367M64.032 67.104C64.032 67.958 63.339 68.65 62.485 68.65 61.631 68.65 60.938 67.958 60.938 67.104 60.938 66.25 61.631 65.557 62.485 65.557 63.339 65.557 64.032 66.25 64.032 67.104M58.649 64.784C58.649 65.21 58.303 65.557 57.876 65.557 57.449 65.557 57.103 65.21 57.103 64.784 57.103 64.356 57.449 64.01 57.876 64.01 58.303 64.01 58.649 64.356 58.649 64.784"/>
    <path fill="#E9F5FF" d="M123.383,59.079 C123.383,65.959 117.805,71.538 110.924,71.538 C104.043,71.538 98.465,65.959 98.465,59.079 C98.465,52.198 104.043,46.62 110.924,46.62 C117.805,46.62 123.383,52.198 123.383,59.079"/>
    <path d="M121.389,59.079 C121.389,64.858 116.703,69.543 110.924,69.543 C105.145,69.543 100.459,64.858 100.459,59.079 C100.459,53.299 105.145,48.614 110.924,48.614 C116.703,48.614 121.389,53.299 121.389,59.079"/>
    <path fill="#1D1E1E" d="M121.389,59.079 C121.389,64.858 116.703,69.543 110.924,69.543 C105.145,69.543 100.459,64.858 100.459,59.079 C100.459,53.299 105.145,48.614 110.924,48.614 C116.703,48.614 121.389,53.299 121.389,59.079"/>
    <path fill="#FFF" d="M117.628 56.367C117.628 58.508 115.892 60.244 113.751 60.244 111.61 60.244 109.875 58.508 109.875 56.367 109.875 54.227 111.61 52.491 113.751 52.491 115.892 52.491 117.628 54.227 117.628 56.367M110.924 67.104C110.924 67.958 110.231 68.65 109.377 68.65 108.523 68.65 107.831 67.958 107.831 67.104 107.831 66.25 108.523 65.557 109.377 65.557 110.231 65.557 110.924 66.25 110.924 67.104M105.541 64.784C105.541 65.21 105.195 65.557 104.768 65.557 104.341 65.557 103.994 65.21 103.994 64.784 103.994 64.356 104.341 64.01 104.768 64.01 105.195 64.01 105.541 64.356 105.541 64.784M121.057 7.527C121.057 8.732 120.08 9.708 118.875 9.708 117.67 9.708 116.693 8.732 116.693 7.527 116.693 6.322 117.67 5.345 118.875 5.345 120.08 5.345 121.057 6.322 121.057 7.527M141.566545 61.0548331C140.866545 61.5498331 135.986545 51.6098331 122.890545 42.9908331 118.285545 39.9618331 113.740545 37.8018331 114.011545 37.1738331 114.284545 36.5358331 119.403545 37.7218331 123.502545 39.6228331 136.560545 45.6808331 142.398545 60.4678331 141.566545 61.0548331M131.890545 17.9908331C127.285545 14.9618331 122.740545 10.8018331 123.011545 10.1738331 123.284545 9.53583311 128.403545 10.7218331 132.502545 12.6228331 145.560545 18.6808331 151.398545 33.4678331 150.566545 34.0548331 149.866545 34.5498331 144.986545 26.6098331 131.890545 17.9908331zM107.042 87.654C106.873 89.317 105.488 90.598 103.824 90.759L80.83 92.976C79.167 93.137 77.563 92.145 77.078 90.545 76.863 89.835 76.697 89.101 76.584 88.348 76.553 88.139 76.608 87.927 76.738 87.761 76.868 87.595 77.06 87.49 77.27 87.47L106.279 84.671C106.485 84.651 106.691 84.717 106.848 84.854 107.005 84.99 107.099 85.185 107.107 85.393 107.141 86.156 107.118 86.912 107.042 87.654"/>
    <path d="M107.043,87.655 C106.309,94.783 100.642,100.644 93.238,101.351 C85.936,102.058 79.341,97.529 77.173,90.824 C77.752,92.258 79.258,93.13 80.829,92.974 L103.828,90.76 C105.491,90.595 106.869,89.318 107.043,87.655"/>
    <path fill="#1D1E1E" d="M107.043,87.655 C106.309,94.783 100.642,100.644 93.238,101.351 C85.936,102.058 79.341,97.529 77.173,90.824 C77.752,92.258 79.258,93.13 80.829,92.974 L103.828,90.76 C105.491,90.595 106.869,89.318 107.043,87.655"/>
    <path fill="#F9F9F9" d="M143.271,139.299 C143.271,139.51 143.271,139.712 143.262,139.905 C143.188,141.834 142.738,143.285 142.518,143.938 C136.188,163.272 132.396,173.468 127.077,181.716 C126.158,183.14 125.194,184.509 124.156,185.85 C122.797,187.641 121.309,189.386 119.655,191.186 C115.981,195.182 110.424,196.991 108.633,197.615 C102.084,199.931 96.298,199.508 92.449,199.545 L91.778,199.545 C87.921,199.508 82.143,199.931 75.594,197.615 C73.803,196.991 68.237,195.182 64.572,191.186 C54.468,180.191 50.583,171.052 41.71,143.938 C41.499,143.313 41.076,141.963 40.975,140.153 C40.947,139.63 40.938,139.105 40.966,138.582 C41.159,135.34 42.472,132.162 44.805,129.26 C48.801,124.281 54.973,121.553 61.357,121.525 L92.118,121.396 L122.319,121.277 C128.841,121.25 135.16,123.987 139.303,129.029 C141.305,131.473 142.582,134.109 143.05,136.828 C143.114,137.214 143.17,137.608 143.206,137.994 C143.243,138.426 143.271,138.857 143.271,139.299"/>
    <path d="M92.113,121.4 L61.353,121.529 C54.969,121.557 48.796,124.285 44.801,129.263 C42.468,132.166 41.154,135.344 40.961,138.586 C41.117,135.261 42.486,132 44.92,129.033 C49.053,123.99 55.382,121.254 61.903,121.281 L92.113,121.4"/>
    <path d="M92.113 121.4L61.353 121.529C54.969 121.557 48.796 124.285 44.801 129.263 42.468 132.166 41.154 135.344 40.961 138.586 41.117 135.261 42.486 132 44.92 129.033 49.053 123.99 55.382 121.254 61.903 121.281L92.113 121.4M122.688 166.72C122.238 142.858 119.01 138.141 123.771 132.464 124.318 131.812 127.111 128.482 131.704 127.633 135.364 126.956 138.687 128.128 140.258 129.019 149.807 134.428 146.973 157.879 140.684 172.683 139.313 175.91 135.634 184.568 131.149 184.362 129.313 184.277 127.958 182.733 127.007 181.62 122.802 176.695 122.755 170.317 122.688 166.72"/>
    <path fill="#E3E5E6" d="M122.688,166.72 C122.238,142.858 119.01,138.141 123.771,132.464 C124.318,131.812 127.111,128.482 131.704,127.633 C135.364,126.956 138.687,128.128 140.258,129.019 C149.807,134.428 146.973,157.879 140.684,172.683 C139.313,175.91 135.634,184.568 131.149,184.362 C129.313,184.277 127.958,182.733 127.007,181.62 C122.802,176.695 122.755,170.317 122.688,166.72"/>
    <path d="M127.077,181.716 C126.158,183.14 125.194,184.509 124.156,185.85 C123.825,185.51 123.531,185.17 123.266,184.857 C119.059,179.935 119.013,173.56 118.948,169.959 C118.498,146.096 115.265,141.384 120.032,135.707 C120.381,135.285 121.658,133.77 123.733,132.511 C119.031,138.169 122.236,142.927 122.687,166.717 C122.751,170.317 122.806,176.691 127.004,181.624 L127.077,181.716"/>
    <path fill="#D1D5D6" d="M127.077,181.716 C126.158,183.14 125.194,184.509 124.156,185.85 C123.825,185.51 123.531,185.17 123.266,184.857 C119.059,179.935 119.013,173.56 118.948,169.959 C118.498,146.096 115.265,141.384 120.032,135.707 C120.381,135.285 121.658,133.77 123.733,132.511 C119.031,138.169 122.236,142.927 122.687,166.717 C122.751,170.317 122.806,176.691 127.004,181.624 L127.077,181.716"/>
    <path fill="#FFF" d="M140.542 146.851C140.407 144.287 139.926 142.4 138.965 138.629 137.706 133.695 136.128 131.29 137.153 130.338 137.82 129.718 139.135 130.137 139.432 130.231 143.941 131.67 145.338 140.132 145.145 145.427 145.025 148.669 144.233 152.294 143.046 152.454 142.858 152.479 142.393 152.455 142.06 152.16 140.734 150.988 140.645 148.799 140.542 146.851M143.639 155.898C143.639 156.415 143.22 156.834 142.703 156.834 142.186 156.834 141.767 156.415 141.767 155.898 141.767 155.382 142.186 154.963 142.703 154.963 143.22 154.963 143.639 155.382 143.639 155.898"/>
    <ellipse cx="91" cy="217" fill="#000" fill-opacity=".1" rx="41" ry="10"/>
  </g>
</svg>
