<svg width="543" height="480" xmlns="http://www.w3.org/2000/svg" xmlns:xlink="http://www.w3.org/1999/xlink"><defs><path id="a" d="M973 480h543V0H973z"/></defs><g transform="translate(-973)" fill="none" fill-rule="evenodd"><mask id="b" fill="#fff"><use xlink:href="#a"/></mask><g mask="url(#b)"><g opacity=".4"><path d="M1506.08 269.82l-14.12 15.91 1.88.93 16.97-1.55zM1482.97 216.09l1.61.94 2.58-6.12zM1412.04 252.96l6.07-3.46-25.83-12.79zM1484.46 217.32l-1.69-.99-18.68 23.08 10.84.54zM1454.51 229.09l.17 9.86 9.03.44 18.8-23.22-2.64-1.54zM1461.91 270.85l12.89-30.61-10.95-.53-8.97 11.08.29 16.72zM1461.8 271.13l-6.63-3.28.31 18.26zM1454.86 267.35l-.28-16.19-9.28 11.46zM1454.37 238.93l-.16-9.67-15.59 8.89zM1454.57 250.68l-.19-11.44-16.26-.8-19.35 11.04 26.25 13zM1511.28 286.63l-.38-1.22-16.53 1.51 13.9 6.88zM1511.12 285.08l.84-.08 17.38-41.4-23.02 25.94zM1511.83 285.32l-.61.06.25.81zM1529.7 243.54l-17.39 41.43 17.99-1.65zM1514.45 296.86l-3.03-9.77-2.87 6.85zM1530 243.26l.61 40.03 28.17-2.57zM1497.6 241.37l8.61 27.83 23.3-26.26zM1475.13 240.26l-12.94 30.72 29.49 14.61 14.29-16.12-8.7-28.12zM1530.62 304.87l-.31-21.24-18.13 1.66-.57 1.35 3.22 10.41zM1454.87 250.31l8.6-10.62-8.78-.44zM1457 290.34l-1.44.13.6 35.15 18.45-20.8zM1455.86 325.96l-.61-35.46-1.33.12-30.08 71.42zM1490.45 286.97l1.01-1.15-29.39-14.55-6.57 15.61.03 1.85 1.57 1.29zM1455.25 290.19l-.03-1.31-.42-.35-.74 1.76zM1456.66 290.06l-1.12-.93.01 1.03zM1600.33 259.37l-70.11-16.32 28.92 37.63 41.48-3.79zM1484.73 217.47l-9.47 22.49 21.91 1.08-6.14-19.87zM1514.95 297.46l16.36 52.86-.68-45.1zM1531.18 350.95l-16.61-53.68-6.14-3.05-11.86 28.26zM1508.15 294.09l-14.37-7.12-3.18.29-15.55 17.53 21.27 17.48zM1158.16-162l-7.14-11.54-10.17 11.61zM1454.51 228.74l25.06-14.3-25.56-15.01zM1437.55 238.41l-45.68-2.25 26.56 13.16zM1484.85 217.19l6.04 3.55-3.19-10.32zM1411.75 253.12l-20.38-16.76 5.05 25.51zM1454.68 288.03l.51-1.21-.33-19.12-9.76-4.83-8.4 10.38zM1455.22 288.47l-.02-.89-.27.65zM1453.71 290.33l.84-2-18.04-14.84-16.1 19.88zM1444.82 262.73l-26.38-13.07-6.14 3.51 24.16 19.88zM1195.07-90.4l-.09-.92-.55.43zM1202.14-14.61l-3.03-.24 3.3 3.23zM1253.32-16.07l-14.08-18.71-34.4 20.37-.08-.13-.01.15-2.3-.19.3 3.2zM1490.9 286.93l2.35-.22-1.5-.74zM1253.54-15.78l-50.37 4.67 85.41 41.9z"/><path d="M1202.42-14.89l2.31.19 34.32-20.33-37.85-50.31-3.91-2.98-1.38 3.62zM1288.37 85.69l12.37-.93-5.64-41.19.3-.04 5.65 41.21 56.8-4.25-.31-2.24-63.14-39.78-2.73.96-14.46 33.62zM1291.32 39.22l.35-.57.1-.33-47.44-2.51 13.4 15.18zM1159.33 31.03l84.29 4.44-41.02-46.46zM1291.88 38.01l.64-1.98-3.53-4.7-85.75-42.06 40.81 46.22zM1287.98 85.72l-10.91-12.36-5.85 13.61zM1195.21-92.3l.55.01.13-.11-.56-.74-.2.08zM1195.04-94.04l.4.53 3.73-1.53-2.97-.62-1.18 1.39zM1194.37-96.04l-.99-.21 1.28 1.71zM1100.6-116.46l39.56-45.16-28.91.11zM1197.03-88.52l-1.59-1.21.41 4.34zM1197.15-88.82l.48-1.26-1.42-1.9h-.35l-.59.44.13 1.39zM1194.89-92.3l-.06-.63-1.54.62zM1530.52 242.8l3.93.92-1.16-1.57zM1194.95-91.68l-.03-.31-1.94-.01 1.2.91zM1198.77-15.19l3.34.27-6.45-69.13-18.23 47.95zM1395.23 124.23l-24.66 3.89 13.39 69.71 22.78.38 16.1-38.56zM1453.09 197.94l.51.66-.13-.86zM1407.07 198.22l43.29.73 2.25-1.12-29.55-37.9zM1453.76 197.6l.18 1.17 1.48-1.99zM1331.25 134.33l37.37 63.24 15.03.25-13.39-69.65zM1474.82 304.59l15.33-17.29-32.72 3zM1438.05 238.13l16.15-9.22-.5-29.6-3.28-.05-1.72.86-57.06 35.72zM1390.85 235.78l-22.41-37.91-37.94-.64.08 31.5zM1368.26 197.56l-37.32-63.14-.6.34.16 62.16zM1406.61 198.52l-22.59-.39 7.17 37.31zM1330.03 134.41l-22.04.99 1.5 10.96 20.54-11.77zM1330.34 134.39v.02l.03-.02zM1307.64 135.11l-.67-4.91-50.57-8.78-7.01 16.31zM1249.04 137.74l7.05-16.37-12.93-2.24-11.78 19.4zM1452.81 198.07l-1.78.89 2.5.04zM1368.81 197.88l22.01 37.25-7.11-37zM1243.34 118.85l12.87 2.23 14.52-33.76-8.64.64zM1448.55 199.85l1.21-.6-42.82-.73-15.47 37.07 57.07-35.73.08.13zM1480.18 214.45l2.52 1.48 4.39-5.42zM1073.2-161.37l26.9 44.84-3.3-44.92zM966.4-166.67l1.15 20.18 64.22-17.24.85-.63zM1096.67-118.71l3.11 2.25-1.37-2.28zM1100.38-116.9l10.55-44.61-13.82.05zM1288.06-317.81l14.4 30.51 13.53-4.69 10.86-47.77zM1033.27-164.16v.03l.02-.01zM1032.58-163.94l.39-.11-.02-.17zM1140.43-161.93l10.42-11.89-26.54-42.94-12.99 54.94zM1037.81-220.36l35.2 58.68 23.77-.09-4.15-56.46zM1037.83-161.24l58.42 42.23 1.98-.04-25.39-42.32zM1217.64-198.2l39.5 35.52-28.04-98.36-.48-.78zM1151.06-174.06l20.51-23.41-46.95-19.37zM1290.76-244.17l13.46 3.95 6.54-28.78-8.46-17.92-19.6 6.8zM1533.62 242.07l1.07 1.46.11-1.73zM1297.65-212.02l-7.15-31.91-61.16-17.92zM1174.96-196.4l-.71-3.66-2.16 2.47zM1175.3-196.26l38.93 16.06 3.08-17.89-25.05-22.53-17.75 20.27zM1174.43-200.73l17.61-20.09-26.02-23.4zM1217.38-198.45l10.91-63.29-35.82 40.89zM1018.79-221.1l14.41 56.51.48.35 4.57-1.23.08.3L1034-164l3.41 2.45 35.25-.12-35.22-58.71zM1099.98-115.93l-3.83-2.77-55.56.93 3.77 23.92zM1054.26-31.08l87.55-39.48-40.65-39.83-47.2 77.37z"/><path d="M1193.92-90.89l-1.49-1.14.09-.13-.06-.14 2.34-.96-.06-.66-.1-.14-52.29 23.59 10.76 10.54zM1053.88-33.49l47.12-77.23.13.08.11-.11 40.87 40.05 52.35-23.61-1.54-2.04-92.6-19.38-55.91 22.19zM1177.19-36.34l18.41-48.4-.49-5.25-.94-.71-40.84 30.99zM1202.3-11.3l-3.67-3.6-28.38-2.33-5.46 14.35zM1170.04-17.56l7.03-18.46-23.98-23.5-48.24 36.61zM1152.04 30.64l6.87.36 43.2-41.94-37.46 8.41zM966.38-166.98l66.24 2.31-69.45-58.4zM1198.28-15.23l-20.98-20.56-6.94 18.26zM909.32-198.02l1.83 29.11 22.52.79 28.97-54.96zM933.51-167.82l-22.34-.78 2.3 36.62 1.33-.35zM867.67-170.43l43.17 1.51-1.81-28.96-47.26 22.21zM1095.73-119l-62.11-44.9-.3.07 7.22 45.75zM966.07-166.99l-3.2-55.87-28.86 54.75zM1040.23-118.07l-7.21-45.68-1.11.3-62.33 46.56zM966.09-166.68l-32.24-1.12-18.64 35.36 52.04-13.97zM1031.11-163.23l-63.54 17.05 1.67 29.16zM1282.63-280.43l19.54-6.77-14.38-30.46-11.98 6.78zM1480.99-.52l-.01-.54-.18.52zM1426.09 36.05l33.1 12.97 5.05-1.61 16.15-47.7-1.14-.16zM1481.3-.47l.78.11-.8-1.08zM1480.7-.25l-16.1 47.54 17.71-5.65L1481-.21zM1361.56 79.98l63.87-43.86-40.23-15.76zM1408.27-45.98l-16.3 41.9 29.84-33.68zM1372.06-67.98l19.48 64.17L1408-46.15zM1359.82 10.43l-10.75 4.6 8.35 60.12 3.77 4.94 23.72-59.84zM1347.78 5.71l1.25 9.01 10.38-4.46zM1335.17-89.36l-.6-.08 13.16 94.8 12.09 4.73 31.47-13.49zM1535.12 236.39l-2.95 3.73 1.25 1.68 1.4-.32zM1487.92 210.08l3.37 10.89 33.69 19.78-.16.27-33.4-19.61 6.08 19.64 32.27 1.59 2.01-2.53-25.27-34.19zM1531.97 240.36l-1.73 2.19 2.85-.67zM1482.34-.02l-1.02-.14 1.3 41.71 24.93-7.95zM1441.12 117.47l12.59 79.81 2.11-1.05 21.73-29.48zM1482.84 58.61l-19.49-7.63-22.24 65.65 43.1-14.26zM1484.22 102.69l-42.9 14.2 43.89 17.43zM1395.57 124.18l27.41 35.14 17.64-42.25zM1423.19 159.6l29.7 38.09.53-.27-12.62-79.98zM1294.43-155.82l10.82 17.52 12.97-5.29-3.51-11.68zM1328.14-232.56l.99 4.36 2.13-.75zM1424.1-261.29l-12.49 4.4 27.4 27.04v-.48zM1420.66-77.85l-12.28 31.57 13.64 8.29 31.39-35.45zM1371.97-207.55l-8.16-24-21.77-.87-10.25 3.61 32.14 37.31zM1364.14-231.54l8.02 23.6 11.44-22.83zM1383.35-284.77l20.36-18.87-7.6-15.79-35.45 12.28zM1340.68-300.54l19.41-6.74-32.66-32.22zM1433.19-331.82l-3.97.91-32.82 11.37 7.55 15.68 30.1-27.9zM1434.31-331.34l-22.22 44.38 12.17 25.28 16.44-5.77zM1411.91-286.61l-10.06 20.09 9.51 9.39 12.61-4.44zM1362.07-100.9l4.7 15.48 53.69 7.23 6.05-15.57-27.15-20.35zM1439.96-127.48l-13.08 33.62 26.58 19.92-13.31-53.64zM1366.73-138.56l-11.14 16.31 6.39 21.06 37.08-13.14zM1420.77-78.15l32.38 4.36-26.38-19.77zM1345.9-154.18l9.57 31.55 11.02-16.12zM1316.33-292.11l24.06-8.33-13.28-39.06zM1276.36-185.1l17.88 28.96 20.37.55-16.79-55.75zM1318.6-143.41l15.53 51.57 11.28-62.5zM1227.11 193.77l-.21-3.77-2.12 4.91zM1416.63 365.55l-10.73-54.24-24.28 29.99zM1439.32-229.68v.14l.12.12zM1417.1 365.87l-.07.11.61 3.05 5.56-6.27 30.38-72.11-33.44 3.06-13.99 17.29 10.85 54.8zM1171.87-197.34l-20.64 23.55 7.29 11.79 23.08-.08-6.57-33.96zM1226.72 189.64l22.19-51.59-17.72.8-24.04 39.59 9.22 8.85zM910.86-168.61l-42.83-1.49 43.46 38.66 1.67-.45zM1393.9-250.66l-9.81 19.6 54.93 2.18v-.53l-27.74-27.37zM913.29-129.84l-.11-1.74-1.41.38zM913.49-131.66l.1 1.62 1.02-1.92zM1531.12 351.3l-34.68-28.52-15.27 36.4 47.68-7.52-2.03-2.92.25-.17 2.11 3.03zM1502.28-111.68l.4.01.08-.38zM1439.95-132.7l5.63 1.8 48.36-26.47-54.17-4.36zM1486.92 179.43l.04 1.3.67-.34zM1495.97-158.13l.06.48 2.36-1.8zM1503.09-111.66l-.06-.17-.03.16zM1477.74 167.01l-21.32 28.92 30.24-15.05-.06-1.88zM1445.61-130.57l-5.18 2.83 13.38 53.92 47.6-37.56-3.65-.07v-.31l4.04.07.87-.68zM1503.52-111.34l18.35 55.19 35.58-54.19zM1502.94-111.35l-9.97 50.31 26.5 8.55 2.18-3.33-18.46-55.53zM1327.91-233.39l26.82-24.86-14.24-41.91-24.24 8.41-5.16 22.72zM1194.31-96.37l-2.01-10.4-33.95-54.91-17.78.06-39.98 45.63 92.05 19.27-1.24-1.64.25-.19 1.45 1.93zM1495.73-157.54l-.05-.43-.69.37zM1195.1-93.38l.04-.01-.04-.06zM1196.14-92.58l2.53-1.92-3.04 1.24zM1401.61-266.75l10.13-20.22-7.89-16.38-20.28 18.8zM1404.09-303.57l7.83 16.26 21.98-43.88zM1439.58-228.86l-.25-.25v.24zM1158.61 31.3l-6.69-.35-4.13 10.86zM1310.87-269.48l5.04-22.15-13.32 4.61zM1383.34-284.34l-28.25 26.18 6.32 18.6 32.27-11.35 7.79-15.54zM1544.04 82.25l-1.93-2.57-1.03 1.41zM1507.75 33.86l-25.12 8.01.51 16.52 57.64 22.58 1.14-1.55zM1487.49 207.52l-.82-26.3-30.65 15.25-1.94 2.65 25.8 15.15 7.68-4.38-.82-5.15.31-.05zM1328.84-228.1l-1.08-4.77-29.65 21.24 47.21 56.45-16.41-72.61-.17.06-.11-.3zM1530.61 283.6l.33 21.42 39.88 19.75 14.73-9.21L1559 281zM1307.68 135.41l-58.43 2.63-22.23 51.67.48 3.83 81.7-47.01zM1601.66 340.05l-.06-3.6-15.86-20.65-14.6 9.13zM1586 315.64l15.59 20.29-.49-29.74zM901.96-310.47l-22.51 70.91 27.29 5.22zM1519.67-285.08l-15.76-62.59-21.61 68.49zM1610.25 89.05l15.86 31.5 1.88-29.41zM1571.58 12.9l-.13.34.25-.09zM1490.79 1.19l57.54 19.42 22.74-7.25.28-.71zM1625.9 121.78l-54.97 69.4 39.86-8.92zM1629.63 50.34l-24.35 28.84 4.81 9.54 17.92 2.12 2.53-39.48zM1542.68-288.4l-1.17 38.25 29.02 14.17 19.71-28.7-39.6-24.97-5.59.88 1.36 4.99-.29.08-1.37-5.02zM1600.34 226.53l46.93 43.46 7.96 1.85-2.11-43.11zM1570.52 191.7l29.34 34.33 10.85-43.44-40.09 8.98zM1360.75-392.89l-.19-.39-.31.49zM715.72-288.35l-.82-1.21-11.25 6.77.11 29.87zM1433.31-405.72l-72.08 11.37-.08.12 72.59 22.08zM1218.87-279l17.44-9.87 14.4-48.37-63.45 2.23-.38 1.61zM1609.73-461.69l-101.25 38.67 36.19 34.78 65.5-63.96.75-1.97zM1360.98-393.95l-.02.03.95.8 1.11-.21zM1672.17 229.53l-18.74-.78 2.1 42.97 24.57-20.66zM1185.96-334.97l.69 1.18.29-1.21zM1361.06-392.95l.47-.09-.74-.62-.04.07zM1628.3 91.18l-1.87 29.21 14.13-27.76zM1168.11 141.38l-42.63-40.93-.28.75 22.82 41.08zM752.35-178.01l16.52-22.01-63.72-20.27-1.28.4.01 3.89zM1133.16 142.95l14.52-.65-22.62-40.73-.72 1.88zM860.11-179.65l18.95-59.68-36.11-6.9zM703.58-216.24l-.02-3.55-3.23 1.01zM1434.06-371.73l.5 39.28.14-.04 25.36-31.34zM1434.62-331.89l44.85 49.77 1.66-2.22.24.19-1.69 2.27 2.33 2.58 21.69-68.72-68.83 15.81z"/><path d="M862.44-170.61l4.74.17-5.79-5.16.1-.11-.06-.14L909-198.21l-2.24-35.81-27.4-5.25-19.1 60.18zM1401.7-266.23l-7.6 15.17 16.94-5.96zM1600.93 277.17l.47 28.47 53.36-33.39-4.59.42.1.09-.21.23-.3-.28zM1683.28 417.06l-3.42 7.49 6.97-4.15zM1404.89 428.88l39.51 11.08 12.83-24.63zM1518.71 468.76l10.95-4.59-23.71-6.64zM1657.88 393.19l-37.29 30.29 15.75 8.11 43.07-6.79 3.63-7.97zM1589.35 439.5l-58.75 24.62 27.02 7.57zM1444.71 440.05l20.67 5.79-7.9-30.32zM1465.82 446.28l10.49 40.25 42.09-17.63-13.13-11.56zM1465.72 445.93l39.02 10.94-46.94-41.33zM1215.78 187.16l-8.79-8.45-3.45 5.67zM1268.65-91.48l7.97 34.2 54.98-32.56-2.69-.36.05-.31 3.07.42 1.58-.94zM1254.85-44.39l-52.74-40.26 37.21 49.46zM1253.68-16.1l31.53-2.93-.62-2.66-29.47-22.5-15.61 9.25zM1332.52-90.03l.63.09.51-.76zM1294.47 38.11l4.45-1.9-5.29-2.6-.77 2.36zM1293.45 33.18l9.43-28.93-17.55-22.98-31.43 2.92 35.29 46.9zM1294.1 38.13l-1.35-1.8-.56 1.7zM1333.89-89.84l.31.04-.09-.7zM1299.29 36.05l21-9.01-17.18-22.49-9.38 28.76zM1293.35 33.48l-3.75-1.85 3.04 4.04zM1341.21-232.45l-13-.52 3.36 3.91zM1333.29-89.61l-47.65 70.65 22 8.62 25.85-79.24zM1197.92-97.67l-1.49 1.74 2.95.62zM1261.57-120.48l-9.45-40.57-51.22 59.9-1 5.82zM1307.55-10.05l-21.69-8.5L1303 3.9zM1333.68-90.19l-.19.29.09.01zM1284.48-22.16l-8.07-34.64-21.01 12.45zM1332.95-89.66l-.86-.11-55.4 32.81 8.78 37.69zM1334.41-90.52l.11.76.43.06zM1198.35-91.97l-1.76-.01 1.17 1.55zM1345.65-153.94l-11.21 62.08 20.81-30.44zM1290.39-131.9l43.05 39.84-28.31-45.85zM1305.42-138.03l28.26 45.77-15.36-51.03zM1261.93-120.3l6.64 28.51 65.2.45-43.69-40.44zM1263.65-156.66l26.49 24.52 14.82-6.04-10.89-17.65zM1181.91-162.08l29.21-.11 3.05-17.7-38.8-16.01zM1320.77 27.17l36.27 47.48-8.26-59.49zM1257.64-162.23l5.67 5.25 30.56.83-17.72-28.7zM1211.43-162.19l45.23-.18-42.2-17.4zM1214.52-180.08l42.14 17.39-39.08-35.15zM1333.8-89.55l-25.87 79.32 39.47 15.46-13.15-94.71zM1334.67-90.7l.68 1.06 1.34.17zM1371.66-68.22l-34.31-20.84-1.77-.25 55.48 84.99zM1347.45 5.58l-39.61-15.52-4.61 14.13 17.35 22.73 28.15-12.08zM1334.52-91.14l2.93 1.78 28.98 3.9-4.65-15.34zM1355.37-121.93l-20.81 30.45 27.13-9.62zM1420.34-77.89l-53.47-7.2 5.05 16.67 36.2 21.98zM1338.12-88.96l33.41 20.3-5-16.48zM1198.79-92.27l69.47.48-6.62-28.39-61.82 25.21zM1330.03 133.88v-.54l-26.42-29.92 3.63 26.51zM1329.58 134.12l-22.3-3.87.67 4.84zM1330.34 133.69v.25l.26.04zM1395.01 123.96l-28.42-36.46-4.15-1.64 8.07 41.96zM1361.51 80.99l.86 4.51 3.84 1.52zM1358.48 84.99l-.59-4.2-56.8 4.25 2.44 17.83 26.5 30.01-.01-3.92h.31l.01 4.26.63.72zM1271.08 87.29l-14.56 33.84 50.4 8.75-3.68-26.88-15-16.99zM1370.2 127.87l-9.04-47.04-29.87 53.18zM1358.2 80.77l.53 3.78 2.23-3.98zM1288.62 85.98l14.54 16.47-2.38-17.38zM1361.22-239.16l-18.38 6.47 20.86.82zM1229.29-261.51l.1.34 46.79 75.79 21.48-26.25zM1354.84-257.93l-26.6 24.66 13.76.54 19.12-6.73zM1340.77-300.26l14.21 41.78 28.14-26.08-22.78-22.48zM1383.75-231.07l9.74-19.45-31.98 11.26 2.52 7.41zM1275.98-185.12l-46.28-74.96 27.8 97.54zM1327.51-233.07l-23.06-6.76-6.32 27.81zM1297.89-212.36l6.26-27.56-13.31-3.91zM1327.57-233.38l-16.59-35.16-6.46 28.4zM1362.18 79.93l96.54-30.77-32.94-12.9zM1199.36-94.64l-3.03 2.31.03.04 2.1.02zM1195.24-91.9l.12-.09h-.13zM1197.96-98.19l2.65-3.1 10.46-60.59-29.1.11 10.62 54.89zM1255.14-44.56l21.2-12.55-8.01-34.37-69.66-.48-.69 1.83 3.44 4.57zM1200.52-86.25l-2.67-3.54-.45 1.17zM1196.09-96l1.66-1.94-5-8.09 1.88 9.73zM1199.62-95.51l.89-5.18-2.38 2.78z"/><path d="M1257.37-162.06l-45.99.17-10.38 60.15 51.08-59.74.12.1.15-.04 9.51 40.82 27.97-11.41-26.64-24.66-4.94-.13.01-.31 4.59.12zM1158.71-161.69l33.42 54.07-10.47-54.15zM1459.18 49.34l-97.69 31.14 5.28 6.77 74 29.42 22.3-65.81zM1195.86-95.73l-1.16-.24.25 1.3zM1482.32 41.97l-17.84 5.68-1.03 3.03 19.38 7.59zM1463.16 50.57l.95-2.8-4.46 1.42zM1440.29 116.81l-73.14-29.08 28.2 36.17zM1357.83 78.06l2.76 1.75-3.09-4.05zM1358.16 80.47l2.6-.2-2.88-1.81zM1320.48 27.3l-25.73 11.03 62.73 39.52-.35-2.58zM1291.95 38.77l-.12.27 1.81-.62-1.55-.09-.13.43-.15-.05zM703.76-251.96l.11 30.93 1.28.41 46.82-14.66-36.03-52.75zM703.56-220.12v-.68l-9.32-2.96-.05.16 5.85 4.59zM693.8-223.9l.13.1.02-.05zM522.75-293.8l170.35 69.35.94.3 9.41-27.87-.1-30.59-156.88-14.93zM703.45-251.06l-9.11 27 9.22 2.94zM694.08-223.29l-2.32 6.87 7.92-2.48zM1088.8-270.3l-2.32-31.6-80.75 26.9zM397.92-65.03l305.91-79.46-.25-71.36-3.6-2.82-8.34 2.61L397.69-66.47zM723.67-139.32l-19.43 25.86.14 39.63 131.43-38.1zM704.13-144.1l.11 30.13 19.1-25.43zM913.38-129.3l-75.34 17.15 81.92-2.96zM713.64-291.94l1.35 1.97 1.39-.84zM907.05-234.28l55.6 10.64-60.4-87.12zM715.85-288.72l.59-1.77-1.28.77zM1018.39-221.43l-13.55-53.13-41.54 51zM858.94-175.96l1-3.14-17.32-67.2-33.49-6.41zM1088.83-270l-83.15-4.7 85.85 41.54zM836.76-270.25l6.11 23.69 36.28 6.94 22.64-71.33zM717.6-290.31l57.71 47.71 29.16-9.13-.7-3.1zM716.06-288.4l36.21 53.02 22.69-7.11-58.16-48.09zM805.56-248.35l8.61 37.88 44.14 36.49.51-1.6-50.03-77.08zM804.84-251.52l.63 2.78 2.92-3.89zM752.16-177.77l-48.27-37.84.24 71.2 19.41 4.74zM1330.73 302.23l-.39 3.57 4.11 2.85zM1248.3 219.4l-40.84-4.78-46.37 52.11 118.52-15.93zM1334.81 309.28l-4.51-3.13-12.19 113.13 46.88-57.92zM1329.22 300.56l-.95.54 1.88.39zM1279.88 251.08l-118.26 15.89 166.19 34.04 1.19-.68zM1327.86 301.33l-2.18 1.25 4.37 3.03.4-3.75zM1318.43 419.99l60.9 46.53 24.7-37.51zM1365.16 361.64l-46.69 57.68 61.95-31.34zM1374.79 856.49l29.67-339.85 11.38-21.85-36.44-27.83-7.29 389.96zM1380.57 388.25l-62.14 31.43 85.58 9.01zM1040.5 147.42l98.32 22.29-5.9-26.44zM1052.9-31.89l-46.21-46.67-58.37 23.17 104.27 24.02zM1053.08-26.86l-2.84-.24.01-.15-.13-.08 2.3-3.76-104.04-23.97 93.03 79.75zM948.23-54.78l90.98 201.42 2.14-121.6zM969.16-116.44l-21.1 60.82 58.39-23.18zM1124.03 103.47l.15-.03-.14-.06.82-2.16-1.57-2.82-83.32 48.74 92.88-4.17zM837.01-111.81l110.47 56.12-27.38-59.11zM1147.85 142.6l-14.62.66 5.92 26.53 27.23 6.17zM1041.65 25.31l-2.14 121.64 66.23-64.31zM1186.57 212.17l.02-.15-.14.07-19.87-35.77-27.35-6.2 21.55 96.5 46.3-52.04zM1193.08-264.41l25.52-14.44-31.82-54.12-15.88 67.31zM1545.91-289.22l2.53-.4 1.27-3.18zM1527.09-256.85l12.76 50.66 1.34-43.77zM1540.09-203.98l-.4 12.9 2.67-3.88zM1490.12-209.65l49.01 18.77-56.82-87.48zM1493.1-183.4l45.82-7.23-48.77-18.67zM1520.05-284.83l6.94 27.59 14.21 6.94 1.17-38.05zM1482.59-278.92l44.04 21.51-6.89-27.37zM1479.5-281.63l-35.18 47.34.74 7.39 44.73 17.12-7.86-69.15zM1541.5-249.81l-1.38 44.71 2.47 9.8 27.77-40.43zM1364-190.95l-18.09 36.12 39.29-11.51zM1482.51-278.61l56.87 87.55.43-14.01-13.08-51.95zM1558.01-110.64l28.18.53 1.46-45.66zM1586.17-109.8l-28.36-.53-35.82 54.56 1.51 4.52 61.46-20.41zM1585.08-71.38l-61.02 20.27 57.4 8.48 4.32-23.7.31.06-4.32 23.68 54.4 8.04zM1386.78-166.31l52.67 4.24-.08-12.54zM1581.41-42.33l-57.95-8.56-41.95 48.74 95.9-18.28zM1503.18-112.35l.23.7 54.24 1.01 29.72-45.27zM1439.68-174.65l.08 12.61 54.67 4.4 1.21-.66-2.81-24.74zM1493.14-183.09l2.79 24.63 4.11-2.25 38.9-29.6zM1496.36-157.52l90.97 1.05-47.81-33.9zM1496.08-157.21l7.03 44.54 84.09-43.5zM1503.79-348.54l.11-1.95-3.98-1.22zM1327.06-340.33l32.55-52.02-64.6 12.59zM1278.29-338.51l48.47-1.7-32.09-39.48-32.8 6.4zM1434.1-332.35l.15-.03-.5-39.45-70.1-21.31-1.43.28zM1269.38-338.2l-7.76-34.6-10.49 35.24zM1388.71-335.53l44.46 3.4.55-.13-71.89-60.53-.63.13zM1327.34-340.2l61.01 4.65-27.46-57.05-.86.17zM1089.14-269.98l2.71 36.98 32.17 15.56-12.08-51.25zM1112.26-268.67l12.08 51.24 39.58-30.24-10.4-18.67z"/><path d="M1404.9 516.46l25.38-10.63-14.19-10.84zM1164.17-247.86l.92-.7.09.12-.07-.13 1.66-.95 3.74-15.85-16.62-.95zM1508.3-422.12l-4.01 70.17 1.02 1.56.46.14 17.5-17.09zM1506.1-350.15l3.1.94-.09.3-3.26-.99-.13.13 38.28 58.3-20.64-75.53zM1505.12-350.13l-.92-.27-.1 1.78 1.22-1.19zM1505.49-349.55l-1.4 1.37 15.88 63.05 24.7-3.89-.41-1.48zM1544.97-289.07l.21-.03-.37-.58zM1460.59-363.99l37.94 11.54-28.44-23.28zM1460.38-363.73l-25.19 31.13 68.39-15.71-4.43-3.63zM1504.85-350.53l-.59-.9-.04.71zM1433.62-405.57l.43 33.52 26.22 7.97 9.58-11.84zM1086.78-302l2.33 31.71 22.76 1.29-9.04-38.34zM1523.61-367.25l20.93 76.61.93 1.41 4.52-4.25 23.32-57.95-.69-2.23.14-.05-.14-.06 2.01-5.25-29.96-28.79zM1470.04-376.16l37.76-46.66-74 17zM1499.3-352.22l4.61 1.41.07-1.05-1.01-1.54.25-.17.79 1.19 4.01-70.22-37.74 46.64zM1544.45-388.02l-35.95-34.55 15.02 54.99zM1481.71-1.88l7.49 2.53 82.24 11.7 5.91-32.46z"/><path d="M1573.93-352.96l1.95-4.86-1.01-.97-1.92 5.03zM1574.75-359.34l35.16-92.17-65.02 63.48zM1294.45-379.96l-11.23-13.82-21.09 20.12zM1187.4-337.93l.21.12.2-.88zM1361.04-394.63l.77-1.23-1.18 1.3zM1359.84-392.71l.56-.9-.29-.6-61.07-14.66-15.59 14.88 11.34 13.96zM1597.36-275.04l25.82-37.58-28.13-22.82-12.73 11.97zM1570.81-235.84l45.28 22.1-13.39-43.08-12.19-7.69zM1602.56-257.27l-5.3-17.08-6.58 9.58zM1639.03-233.91l-35.93-22.66 13.31 42.85zM1587.76-156.55l28.28-56.65-76.17 22.69zM1573.49-351.88l.32-.79-.75-.6zM1539.89-190.83l76.03-22.65-45.28-22.11zM1582.22-323.79l12.59-11.84-20.75-16.83-.42 1.04zM1187.53-337.5l-.28-.15-1.17 2.16 1.11-.59zM1573.45-350.96l-22.93 56.98 31.45-29.58zM1550.25-293.3l-1.46 3.63 1.86-.3.02.16.08-.14 39.67 25.02 6.72-9.79-15.07-48.51zM1112.19-268.98l41.16 2.32-27.03-48.51-23.2 7.73zM833.25-282.61l-23.74 29.05 26.89-16.83zM901.78-311.31l-29.04-19.63-39.24 48.03 3.18 12.35zM842.53-246.63l-6.04-23.44L809.21-253zM941.39-297.2l-16.09-55.37-23.01 41.19zM962.58-224.28l-21.08-72.55-39.03-14.16zM808.31-253.29l-52.75-66.4-42 27.38zM804.77-251.82l3.58-1.12-4.23-1.75zM714.72-289.81l-1.59-2.34-9.52-3.74.04 12.74zM1126.88 96.79l130.53-45.7-13.51-15.3-84.87-4.47-11.5 11.17zM965.1-288.27l-23.24-8.43 21.01 72.32zM1187.81-337.34l-.25 1.07 1.11-.59z"/><path d="M1261.46-373.32l-44.37-19.39-28.72 52.99-.49 2.06 1.12.63 67.34-35.69.14.27-67.16 35.59 1.46.82-.15.27-1.64-.91-1.53.81-.13.55 63.47-2.23zM1004.58-275.17l-22.37-39.42-16.72 26.13zM1170.59-265.68l15.96-67.68-.92-1.57-59.01 19.66 27.09 48.63zM1186.36-335.29l.65-.02.09-.37zM963.16-223.87l41.5-50.95-39.26-13.34zM1086.46-302.22l-5.84-79.48-75.31 106.51zM1643.29-109.32l-27-103.69-28.28 56.66zM1080.92-381.86l5.84 79.54 16-5.33-17.65-74.87zM1691.82 424.66l51.18 5.08-11.8-35.42-43.86 26.13zM1643.44 324.34l-4.12 17.79 75.71 4.01-30.47-37.74zM1714.9 345.48l-15.75-42.73-14.28 5.53zM1633 369.39l1.53 1.44 40.85 7.76 39.58-32.15-75.71-4.01zM1736.86 390.59l-7.02-1.34 1.53 4.61zM1729.38 388.85l-14.03-42.12-16.56 36.31zM1683.41 416.76l3.7 3.47 43.99-26.21-1.61-4.83-30.83-5.86zM1704.13 230.86l-14.4-.6 5.53 8.05zM1586.49-110.11l56.64 1.06-55.17-46.94zM1680.35 250.85l14.68-12.34-5.68-8.27-16.85-.7zM1699.33 302.35l29.16-11.3-.79-4.94-32.5-47.34-14.74 12.39zM1476.38 486.84l124.58 332.42-60.09-330.58-22.21-19.56zM1465.47 446.18l-20.91-5.85-28.33 54.38 14.38 10.98 45.41-19.03zM1652.4 498.25l-62.17-58.76 7.8 43.52zM1530.14 464.31l-11.17 4.68 22.11 19.47 16.29-16.52zM1689.13 229.92l-35.59-51.83 18.84 51.14zM1597.7 482.92l-7.8-43.54-31.94 32.4zM1759.62 488.37l-2.62-16.6-13.89-41.71-50.92-5.05zM1760.69 495.15l-1-6.29-68.01-63.9-6.95-.69.03-.31 6.56.65-4.25-3.99-7.29 4.34zM1760.76 495.65v-.02l-81.29-70.53-42.66 6.73zM1458.05 415.35l47.37 41.71 24.7 6.92 59.33-24.86zM1655.61 272.06l29.05 35.97 14.39-5.57-18.84-51.09zM1643.2-32.31l.8-.5-.74.14zM1654.88 64.5l9.57-18.79-9.61.88zM1631.5 51.95l-.01-3.23-.47.04-.16 2.49zM1577.68-20.17l-5.9 32.38 71.08-44.31.07-.51zM1572 13.06l4.74-1.51.1.29-4.7 1.5 9.28 18.43 45.19 15.25-.59-.65.22-.22.97 1.08 3.54 1.19.73-4.84-.1-41.28 6.31-.01 5.11-33.99-71.04 44.28zM1629 49.19l1.42-.56-2.78-.94zM1581.71-42.28l-3.97 21.78 61.62-11.75-2.65-1.91zM1585.27-71.84l57.78-36.9-56.57-1.06zM1636.83-34.45l6.24.92.74-4.87.3.05-.73 4.86 1.25.19-1.22-75.31-58.03 37.06zM1653.42 228.44l18.63.77-19.22-52.15-2.07-3.02zM1637.37-34.06l2.27 1.64-.1.14 3.44-.66.05-.29zM1643.31-33l.55-.1-.53-.08zM1640.71 92.33l4.38-8.59-13.52.03-.07-31.36-.67-.74-2.51 39.2zM1600.22 225.83l49.89-52.06-39.07 8.75zM1570.21 191.34l.24-.05 55.29-69.8-85.46 34.84zM1651.67 173.94l-.74-.18 1.46 2.13zM1650.35 173.4l-24.08-51.81-15.14 60.59zM1670.93 95.89l-.29-.32-.42.24zM1598.15 87.63l-57.61 68.25 85.47-34.83-16.12-32.04zM1654.92 83.72l-9.49.02-4.39 8.63 28.67 3.38.72-.41-15.52-17.11zM1640.89 92.67l-14.29 28.06 42.67-24.72zM1444.26 440.24l-39.89-11.18-24.8 37.64 36.41 27.82zM1331.48-228.69l-2.28.79 16.47 72.86 18.11-36.17zM1366.91-138.82l32.5 24.36 35.14-12.45.1.29-34.94 12.38 26.92 20.18 13.01-33.47-54.12-38.52zM1391.55-3.18l-31.32 13.43 24.79 9.72 7.18-18.11.29.12-7.18 18.1 40.43 15.83L1478.8-.52l-2.95-.42.04-.3 3.28.46 1.45-.99zM1318.51-143.7l26.36-10.76-29.84-.8zM1345.95-154.53l20.71 15.52 18.45-26.98zM1314.93-155.58l30.34.83-47.02-56.23zM1492.8-183.35l-2.97-26.08-49.81-19.08-.68.78.34 52.76zM1439.33-228.56v.37l.31-.36zM1440.73-267.14l-16.33 5.75 14.6 30.34-.02-2.89h.32l.02 3.54.68 1.41 4-5.39zM1439.37-174.92l-.34-52.46-53.16 60.9zM1440.21-228.76l4.53 1.73-.69-6.89zM1386.02-166.06l53.66 38.17-.02-1.64-.8-3.28.14-.03.05-.15.6.19-.19-28.96zM1519.6-52.12l-1.3 1.98-.26-.17 1.25-1.91-26.38-8.52-11.54 58.28 41.76-48.52zM1519.77-52.39l3.39 1.09-1.38-4.15zM1454.69-68.36l26.37 65.9 11.56-58.37-38.85-12.55-31.49 35.55 58.51 35.54-26.39-65.96zM1391.86-3.48l88.68 1.4-58.46-35.52zM1501.9-111.37l-47.86 37.76 38.64 12.47 9.95-50.22zM1440.07-127.89l-.09-.37v.41zM1494.5-157.32l-48.52 26.54 56.82 18.13-7.03-44.57zM1440.35-128.05l4.85-2.65-5.24-1.67.01 2.8z"/><path d="M1439.22-132.61l.44 1.76-.01-1.63zM1439.03-227.84l-.01-.73-55.09-2.19-11.63 23.23 12.72 37.42-.29.1-12.62-37.13-7.96 15.89 21.33 24.75zM1164.32-247.59l1.4 2.53.96-4.05-1.41.8zM1228.26-262.42l-9.51-16.16-25.1 14.2zM1171.78-197.71l2.4-2.73-8.54-44.15-1.57-2.81-39.52 30.2zM1167.14-249.73l25.45-14.4-21.76-1.23zM1165.95-244.7l26.29 23.65 35.97-41.06-35.06-1.98-26.11 14.77zM1097.09-161.77l13.91-.05 13.05-55.19-31.11-1.21zM1037.25-220.69l-31.92-53.22 13.38 52.5zM1032.79-164.92l-14.32-56.19-55.04-2.14zM1092.92-218.53l30.59 1.19-31.63-15.31zM1005.31-274.53l32.31 53.85 54.99 2.14-1.05-14.27zM1327.48-339.88l32.94 32.49 35.56-12.32-7.48-15.52zM1441.03-267.24l3.25 32.49 33.84-45.55zM1396.27-319.82l32.86-11.39.05.15-.03-.15 3.01-.69-43.3-3.3zM1228.49-262.63l.08-.27-.65-2.3.3-.08.52 1.83 7.44-25-17.16 9.71zM1278.43-338.21l9.5 20.12 38.52-21.8zM1479.29-281.86l-44.68-49.57 6.39 63.87 37.45-13.18zM1236.69-289.09l38.77-21.94-6.02-26.87-18.41.65zM1228.89-262.9l.19.65 61.34 17.98-8.01-35.75-49.93 17.3-.1-.29 49.96-17.32-6.81-30.39-38.97 22.06zM1269.75-337.91l5.99 26.72 11.92-6.75-9.57-20.25zM1269.69-338.21l8.26-.29-15.85-33.59zM1601.92 336.86l.05 3 1.14-1.45zM1419.98 293.41l16.29-20.12-24.26-19.95-15.52 8.85 6.48 32.78zM1419.71 293.75l-16.67 1.52 3.03 15.33zM1391.02 236.14l-60.4 8.12.15 55.06 65.37-37.29zM1330.32 243.99l-.04-14.99-9.62-1.12 2.34 17.09zM1389.9 235.98l-59.31-6.94.04 14.91zM1330.32 244.3l-7.28.98 7.42 54.17zM1480.81 359.24l15.39-36.67-21.35-17.55-18.68 21.05.63 36.95zM1601.32 340.22l-30.48-15.09-35.8 22.39-.16-.26 35.63-22.29-39.57-19.6.69 45.85zM1456.49 363.07l-.62-36.66-32.4 36.52-2.42 5.73zM1420.7 368.72l2.13-5.07-4.88 5.5zM1291.06 39.64l-33.11 11.59 15.45 17.51zM1270.87 87l5.98-13.9-3.4-3.85-11.17 18.39zM1168.53 141.36l62.48-2.81 11.83-19.48-116.74-20.25-.5 1.31zM1126.21 98.53l116.8 20.26 18.7-30.8-135.34 10.13zM1330.28 228.69l-.08-31.47-13.77-.23 4.18 30.57zM1276.98 72.79l13.81-32.11-17.18 28.3zM1603.3 338.66l-1.01 1.29 1.54-.6zM1316.07 196.67l-6.82-49.81-81.31 46.78-.39.23-2.53 1.26zM1230.82 138.87l-61.98 2.78 38.08 36.58zM1330.2 196.91l-.17-61.97-20.5 11.75 6.85 49.99zM1479.63-.71l.86.12.32-.94zM1226.59 189.93l-9.79-2.22 7.61 7.3zM1540.59 81.23l-57.44-22.5 1.36 43.54 53.66-17.76zM1540.89 81.35l-2.21 2.99 5.35-1.76zM1477.93 166.75l8.65 11.71-.7-22.49zM1485.22 134.66l-43.91-17.44 36.43 49.27 8.13-11.02zM1485.53 134.78l.63 20.29 11.43-15.5zM1484.52 102.59l1 31.86 12.25 4.86 40.08-54.37zM1482.77.05l25.09 33.45 39.97-12.74L1489.11.95zM1482.51-.3l5.01.71-5.99-2.02zM1548.83 20.77l17.14 5.79 4.96-12.83zM1548.33 20.93l-40.27 12.84 34.05 45.4 1.42-1.93.25.19-1.47 1.99 2.13 2.85 21.42-55.43zM1647.12 270.27l-46.49-10.83.29 17.42 48.53-4.44zM1600.63 259.12l46.04 10.72-46.58-43.12zM1486.97 181.06l.9 28.72 18.44-4.13-18.49-25.01zM907.07-233.96l2.23 35.61 53.2-25.01zM1601.4 306l.51 30.34 1.39 1.82 51.43-65.53zM1559.36 280.97l26.45 34.42 15.28-9.56-.47-28.63zM1570.1 191.69l-32.46 7.26-2.16 36.48 34.64-43.72zM1531.98 239.86l3.17-4.01 2.18-36.83-30.5 6.83zM1535.11 241.72l-.13 2.12 65.34 15.21-.54-32.5zM1570.32 191.95l-34.87 44.02-.32 5.43 64.52-15.13zM791.12-229.13l-18.11 24.11 5.23 7.65 41.6 13.24-5.95-26.17zM1675.46 378.92L1658.13 393l25.05 23.54 15.17-33.27zM1404.23 428.46l13.1-58.81-36.48 18.46zM1420.91 369l-1.13 2.69 37.59 42.99-.88-51.3zM1457.25 415.01l-37.6-43.01-1.13 2.68-.29-.12 1.19-2.81-1.79-2.05-13.13 58.97zM1456.8 363.33l.87 51.03 23-54.79zM862.11-170.36l-4.2-1.34-.67 2.12-.3-.1.68-2.11-37.36-11.89 16.19 71.25zM1529.81 353.04L1457.87 415l131.79 23.84zM1635.83 431.67l-15.52-7.99-29.39 15.08zM1529.38 351.88l.49.7 1.1-.95zM1620.03 423.48l-88.55-71.88-1.44 1.24 60.01 86.02zM1417.85 369.48l1.7 1.95 1.01-2.38zM1381.17 341.37l-45.77-31.68 29.8 51.41zM1402.67 295l-6.47-32.65-65.43 37.33v1.89zM1381.36 341.13l24.46-30.22-3.09-15.61-71.85 6.57 4.16 7.19zM1330.41 301.31l-.18-1.32-.73.41zM1330.18 299.65l-7.44-54.33-42.47 5.71 49 49.14zM1481.03 359.51l-23.11 55.04 71.71-61.77-.59-.84zM1532.38 351.41l74.91 14.24-5.59-25.18zM1380.69 387.84l36.68-18.56-.65-3.3-35.3-24.44-16.06 19.84zM1607.7 366.04l12.61 56.77 12.07-52.08zM1532.06 351.66l88 71.45-12.69-57.13zM1605.07 79.43l-6.68 7.91 11.33 1.34zM1538.36 84.78l-40.29 54.65 41.81 16.61 4.44-73.24zM1675.78 378.66l22.7 4.32 16.48-36.14zM1549.7 81.91l.03-.3 48.3 5.69 6.88-8.16-8.46-16.82-51.82 20.37-4.43 73.12 57.59-68.23zM1600.28 226.22l52.83 2.2-2.67-54.54zM1537.66 198.63l32.21-7.21-29.72-34.77zM1497.88 139.69l-11.7 15.88.73 23.32 1 1.36 46.81-23.3.14.27-46.76 23.28 18.53 25.08 30.72-6.88 2.51-42.34zM1322.69 245.01l-2.35-17.17-71.55-8.38 31.21 31.29zM1566.15 26.95l-21.4 55.36 51.56-20.27-15.11-30.02zM1581.62 32.16l14.98 29.77 32.09-12.61-1.65-1.83zM1629.22 49.44l.4.44.74-.89zM1628.91 49.56l-32.17 12.65 8.39 16.67 24.28-28.77zM1602.08 340.75l5.54 24.96 24.83 4.72.21-.94zM1632.75 370.49l1.21.23-1.04-.98zM1632.68 370.79l-12.12 52.32 37.1-30.13-23.28-21.87zM1657.9 392.78l17.17-13.94-40.12-7.62zM1655.09 272.67l-51.59 65.74.63.83 39.04-15.13zM1649.86 272.39l4.57-.42-6.7-1.56zM1655.47 272.38l-11.95 51.59 40.84-15.82zM1602.23 340.48l30.51 28.67 6.19-26.73zM1604.33 339.49l.23.3-.24.19-.29-.37-1.49.57 36.46 1.93 4.09-17.64zM1629.83 50.1l.74.83.12-1.85zM913.14-129.56l-1.73-1.54-3.11.83-.08-.29 2.92-.79-43.59-38.77-5.13-.18-25.75 58.14zM967.26-146.1l-52.25 14.03-1.31 2.48 55.24 12.67zM835.75-112.26l-83.35-65.32-28.53 37.99zM835.72-112.67l-57.67-84.43-8.87-2.82-16.59 22.09zM967.92-116.84l-54.18-12.42 6.55 14.14zM1053.66-31.12l-.54-.54-.22.36zM1053.92-31.3l-.21-1.32-.42.69zM769.07-200.29l3.56-4.74-20.48-29.98-46.48 14.56zM1053.06-32.16l.57-.93-9.51-60.33-37.13 14.74zM968.88-116.56l-48.45 1.75 27.35 59.05zM1044.07-93.73l-3.79-24.03-70.81 1.18 37.29 37.66zM861.94-171.33l-1.86-7.21-.93 2.92zM861.65-171.22l-2.62-4.02-.47 1.48zM1053.15-27.17l.81-3.57-1.23-.28-2.22 3.64zM1320.3 227.52l-4.18-30.54-91.28-1.54 23.6 23.67zM820.18-184.03l37.53 11.94.5-1.57-43.93-36.32zM778.52-196.95l57.56 84.26-16.16-71.09zM804.54-251.43l-28.94 9.07 15.46 12.79 14.17-18.86zM1571.31 13.61l-5.04 13.05 14.73 4.97-9.15-18.19zM704.64-220.45l-.77-.25v.49zM772.83-205.29l18.05-24.03-15.63-12.93-22.79 7.14zM791.3-229.37l22.48 18.58-8.46-37.24zM777.76-197.52l-4.94-7.24-3.44 4.57zM858.47-173.45l-.47 1.46 3.61 1.15zM1151.71 30.62l12.58-33.07-121.66 27.33zM1207.34 214.29l16.91-19-8.03-7.72-12.84-2.91-16.54 27.23zM1126.03 98.14l-1.42.11 1.3.23zM1125.79 98.77l-1.97-.34 1.54 1.47zM1147.27 42.31l4.33-11.38-109.67-5.78 64.03 57.28zM1126.15 97.82l.2-.52-1.84.65zM1123.09 98.16l-17.12-15.31-65.6 63.69zM1273.23 69.01l-15.6-17.67-130.9 45.83-.24.63 135.41-10.13zM1123.39 98.01l3.1-1.09L1147.01 43l-40.82 39.63zM1247.95 219.05l-23.48-23.55-16.76 18.84zM1125.24 100.22l-1.26-1.21 1.02 1.83zM1104.39-22.95l48.47-36.79-10.81-10.6-87.77 39.59-.82 3.61zM1104.02-22.68l-50.63-4.16-11.65 51.43zM1203.06 184.59l-36.08-8.18 19.61 35.3zM1203.23 184.31l3.53-5.82-38.35-36.82-20.22.91 18.59 33.47zM1164.43-2.8l5.5-14.45-65.44-5.39-62.33 47.3z"/><path fill="#F6F6F6" fill-rule="nonzero" d="M1707.16 155.88l-51.4 16.66.1.29 51.35-16.65zM1406.63-433.24l26.31 24.83.21-.22-26.14-24.67zM1374.53 856.54l.26-.05 29.59-338.89-.15-.53zM1654.84 46.28v.31l9.61-.88-9.57 18.79v.68l9.93-19.5 24.61-2.25-.04-.3-24.4 2.23 18.89-37.12-.08-.52-19.18 37.67z"/><path d="M704.04-73.41L436.97 182.51l.31 2 267.1-258 132-38.26 111.29 56.53 91.53 202.63.14-.07v.14l99.58 22.58 21.63 96.94h.14v.15l166.73 34.15-2.09 1.19.08.14-.09.12 4.72 3.25-12.3 113.76h.16l-.1.12 61.36 46.87-7.53 390.25.48-.07 7.29-390 36.44 27.84-11.38 21.85-.09 1 85.34 320.76.38-.06-85.41-321.41 25.88-10.91 160.36 316.36.42-.07-160.45-316.39 45.21-18.9 124.61 332.55-1.57 1.59.51-.08 1.15-1.16.25.94h.3l-.3-1.15-60-330.71 180 312.88.4-.06-180.21-313 16.4-16.63 40 11.22 143.1 315.4.31-.05-142.96-315.39 54.79 15.36 131.16 144.53-.08-.56-130.44-143.79 119.42 73.94-.1-.61-119.8-73.79-62.42-59 170.6 59.09-.06-.35-170.53-59.07 45.66-7.2 124.53 64.1-.06-.38-124-63.82 42.67-6.73 81.29 70.53-.08-.48-80.86-70.12 7.29-4.34 4.24 4-6.55-.65v.31l7 .69 68 63.9-.08-.49-67.49-63.42 50.91 5 13.9 41.71-.3-1.84-13.26-39.77 7.09.7v-.31l-7.15-.72-11.86-35.61 5.84-3.48 7.1 1.34v-.32l-6.65-1.26 5.9-3.52v-.33l-6.3 3.76-7.54-1.43-14.19-42.6 16-35.66-.09-.56-16.11 35.8-15.94-43.26 29.09-11.28v-.31l-29.15 11.3-18.87-51.19 14.74-12.39 32.5 47.33-.11-.7-32.15-46.83 9.14-7.69 14.51.61v-.32l-14.11-.59 12.37-10.4v-.35l-12.77 10.74-15-.63-36.41-53-1.28-2.94 60.3 14.64v-.33l-60.37-14.66-2-5.47-.29.11 2 5.28-.87-.21-24.16-52 79.76 28.9-.06-.35-79.63-28.85 43.19-25 1.47.17 32.08 35.38-.08-.55-31.53-34.77 26.53 3.13v-.32L1671.4 96l-.49-.54 24.47-14.18v-.32l-24.63 14.27-15.79-17.41v.46l15.52 17.11-.72.41-28.72-3.43 4.39-8.63h-.39l-4.37 8.59-12.39-1.46 2.51-39.2.67.74V52l-.63-.7.16-2.49h.47v-.31h-.44l.43-2.83v-2l-.72 4.84-3.54-1.2-1-1.07-.22.22.59.65-45.19-15.25-9.28-18.43 4.7-1.5-.1-.29-4.74 1.51-.24-.48 71-44.28-5.11 34h.31l5.14-34.19 1.66-1 34.66 13.24-.06-.35-34.27-13.28 26.76-35.15-.07-.42-26.79 35.19-1.21-75.07 23.5 11.37-.06-.37-23.41-11.36 16.22-34.22-.08-.54-16.3 34.38-27-103.55 39 42.16-.09-.55-39-42.15 22.74-20.31 7.1 4.48-.06-.41-6.8-4.29 5.36-4.79v-.36l-5.58 5-36.31-22.85-5.48-17.65 25.94-37.76 11.31 9.18-.07-.46-11.07-9 7.85-11.43-.07-.44-8 11.67-28.07-22.77 29.9-28.13-.06-.37-30.1 28.31-20.85-16.91 2-5-.14-.06.11-.11-1.19-1.14 35.46-92.93.72-.69-.06-.38-.39.39.32-.84-.1-.62-.75 2-65.5 64-36.19-34.86 101.25-38.69v-.31l-101.48 38.74-19-23-.35.06 19.07 23-74.55 17.2-72 11.36 1.52-2.43 31.18-34.15-.49.08-30.74 33.66-.15.24-2.56 2.79-60.85-14.6 9-8.62-.54.09-8.86 8.45-17.73-4.26-.8.13 18.26 4.38-15.43 14.72-14.09-17.33-.35.06 14.25 17.43-21.32 20.33-11.16-34.93h-.31l11.15 34.88-44.16-19.28 6.15-11.34-.38.06-6.06 11.16-17.16-7.5-.57.09 17.59 7.68-29.68 54.76-2.26-1.26-21.35-55.55h-.31l21.25 55.27-81.86-45.71-.5.08 84.88 47.4-1.39 2.56-59.13 19.7-37.63-67.57h-.32l37.66 67.61-23.13 7.82-17.64-74.83h-.3l17.64 74.87-16 5.33-5.84-79.54-.63.1-75.36 106.58-22.53-39.7 36.66-57.16-.41.07-36.36 56.83-26.62-46.9h-.33l26.72 47.19-16.85 26.34-23.44-8.51-16.24-55.88 2.69-4.82-.39.07-2.42 4.34-1.1-3.79-.31.05 1.2 4.12-23.14 41.46-29.08-19.65 16.77-20.52-.46.07-16.56 20.27-21.19-14.31-.44.07 21.43 14.48-39.08 47.83-14.75-57.2h-.3L833.16-283l-24.36 29.81-53-66.68L777.52-334l-.75.11-21.14 13.79-7.38-9.28-.35.06 7.47 9.39-42 27.35 3.25-31.81h-.31l-3.26 31.85-56.93-22.36-.6.1L703.3-296v13l-156-14.71-.87.14 156.91 14.96.11 30.59-9.41 27.87-.94-.3-170.35-69.35-.46.07 170 69-315.25 27.1.05.34L693-224.17l.86.68-2.43 7.18-302.72 92.91.05.31 302.51-92.85L397.66-66.68v.21l294-149.59 8.34-2.61 3.6 2.82.24 71.36L397.92-65v.26l305.87-79.4.1 30.61L417.04 55.9l.07.42L703.94-113l.13 39.31L421.13 82.12l.05.31L704.04-73.41zm966.6 168.98l.29.32-.71-.08.42-.24zM1187.26-335l63.45-2.23-14.41 48.37-17.43 9.86-32-54.4.39-1.6zm-.25-.3h-.65l.74-.39-.09.39zm312.14-16.63l4.43 3.62-68.39 15.72 25.19-31.13 38.77 11.79zm-38.56-12l9.5-11.74 28.43 23.28-37.93-11.54zm44.52 13.86l.21.31-1.22 1.2.1-1.78.91.27zm-.89-.59v-.71l.59.9-.59-.19zm1.27 1.17l38.77 59.05.4 1.48-24.69 3.89-15.88-63.05 1.4-1.37zm.61-.6l17.26-16.91 20.68 75.53-38.28-58.3.13-.13 3.26 1 .09-.3-3.14-.89zm39 61.38l5.59-.88 39.6 25-19.76 28.59-29-14.17 1.17-38.25 2.07-.32 1.37 5 .29-.08-1.33-4.89zm36.92-34.79l-31.5 29.5 22.93-57 8.57 27.5zm-8.98-29.77l.75.6-.32.79-.43-1.39zm9 30l15.07 48.51-6.72 9.79-39.67-25-.08.14v-.16l-1.86.3 1.46-3.63 31.8-29.95zm-33.64 33.61l-2.52.4 3.8-3.58-1.28 3.18zm81 339.73l-24.28 28.77-8.39-16.67 32.17-12.65.5.55zm-.19-.67l1.14-.45-.75.89-.39-.44zm-3.17 71.65l-85.47 34.83 57.61-68.25 11.73 1.38 16.13 32.04zm-15.76-32l17.74 2.09-1.88 29.41-15.86-31.5zm-104.83 368l-47.41-41.7 131.4 23.77-59.32 24.88-24.67-6.95zm24.24 7.11l-10.95 4.59-12.76-11.23 23.71 6.64zM910.86-168.61l2.3 36.72-1.67.45-43.45-38.66 42.82 1.49zm-43.2-1.82l-5.89-5.24 47.27-22.21 1.81 29-43.19-1.55zm765.08 539.58l-30.51-28.67 36.7 1.94-6.19 26.73zm.18.59l1 1-1.21-.23.21-.77zm-203.74-700.8l-.05-.15-32.86 11.39-7.41-15.38 43.29 3.3-3 .69.03.15zm-25.47 27.42l-20.36 18.87-22.69-22.38 35.45-12.28 7.6 15.79zm117.94 247.82l-2.18 3.33-26.5-8.55 10-50.31h.25l18.43 55.53zm-18.13-55.52l53.93 1-35.58 54.19-18.35-55.19zm34.65 195.85l-53.66 17.76-1.36-43.54 57.44 22.5-2.42 3.28zm2.72-3.16l3.14 1.23-5.35 1.76 2.21-2.99zm-29.77 203.73l-4.8-15.53 23-25.95-17.36 41.4-.84.08zm.71.24l-.36.87-.26-.81.62-.06zm-88.36 77.61l32.39-36.52.63 36.66-35.45 5.59 2.43-5.73zm-2.77 5.79l-2.75.43 4.88-5.5-2.13 5.07zm-319.46-479.47l-.11.11-.13-.08-47.12 77.23-9.47-60.05 55.9-22.19 92.61 19.38 1.53 2-52.34 23.61-40.87-40.01zm40.57 40.18l-87.55 39.49-.31-1.94 47.21-77.37 40.65 39.82zm-87.89 39.27l-.63-.63.42-.69.21 1.32zM1439.04-133v.15h-.15l.81 3.28v1.64l-53.66-38.13 53.43 4.3.19 29-.62-.24zm.61 2.14l-.44-1.76.42.13.02 1.63zm61.75 19.46l-47.6 37.57-13.38-53.91 5.18-2.84 57.06 18.19-.87.69-4-.07v.31l3.61.06zm-56.21-19.31l-4.85 2.65-.38-1.52v-2.8l5.23 1.67zm-5.25-2l-.19-29 54.18 4.36-48.37 26.47-5.62-1.83zm6 1.92l48.52-26.55 1.27.11 7 44.57-56.79-18.13zm49-26.81l.69-.38v.43l-.69-.05zm-.56-.05l-54.67-4.4-.08-12.61 53.15-8.39 2.81 24.74-1.21.66zm-54.48 30.16l.2-.1 13.31 53.64-26.58-19.92 13.07-33.62zm45.27 262.14l.64 20.81-8.12 11-36.43-49.27 43.91 17.46zm-43.9-17.77l42.9-14.2 1 31.63-43.9-17.43zm64.65 152.58l-14.3 16.11-29.43-14.57 12.94-30.72 22.14 1.09 8.65 28.09zm-8.37-28.1l31.91 1.57-23.3 26.26-8.61-27.83zm-131-153.87l28.49 36.51-24.5 3.86-8.07-42 4.08 1.63zm-4.21-2l-.87-4.51 4.71 6-3.84-1.49zM1453.53 199h-2.51l1.78-.89.73.89zm-.45-1.06l.39-.2.13.86-.52-.66zm-2.72 1l-43.29-.73 16-38.29 29.55 37.9-2.26 1.12zm-27.39-39.63l-27.4-35.14 45-7.11-17.6 42.25zm-27.62-35.42l-28.2-36.17 73.14 29.08-44.94 7.09zm-.13.33l27.62 35.42-16.1 38.56-22.78-.38-13.4-69.71 24.66-3.89zm11.72 74.29l42.82.73-1.21.6.06.14-.08-.13-57.06 35.72 15.47-37.06zm41.76 1.6l1.72-.86h3.28l.5 29.6-16.16 9.28-46.41-2.29 57.07-35.73zm34.27 16l4.19-5.18-2.58 6.12-1.61-.94zm1.49 1.23l-9.53 22.62-10.84-.53 18.68-23.08 1.69.99zm-1.76-1.39l-2.52-1.48 6.9-3.94-4.38 5.42zm-.2.24l-18.79 23.22-9-.45-.17-9.85 25.36-14.46 2.6 1.54zm-27.82 23.09l8.79.43-8.6 10.62-.19-11.05zm.17 28.09l-9.55-4.73 9.28-11.46.27 16.19zm-.35-38.61l-.49-29.3 25.55 15-25.06 14.3zm-.13 10.19l-15.75-.78 15.59-8.89.16 9.67zm-.61-41.33l1.66-.82-1.48 2-.18-1.18zm-16.21 40.81l-19.12 10.91-26.56-13.16 45.68 2.25zm.57 0l16.25.8.2 11.44-9.55 11.8-26.26-13 19.36-11.04zm7 24.43l9.76 4.83.32 19.12-.5 1.21-18-14.78 8.42-10.38zm10.1 24.71v.89l-.29-.24.29-.65zm-.4.95l.42.35v1.31l-1.19.11.77-1.77zm.37-20.68l6.62 3.28-6.31 15-.31-18.28zm0-.34l-.29-16.72 9-11.08 11 .53-12.89 30.61-6.82-3.34zm20.07-27.5l9.47-22.49 6.3 3.71 6.14 19.86-21.91-1.08zm9.59-22.77l2.85-6.77 3.19 10.32-6.04-3.55zm2.12-36.13l.85-.42 18.49 25-18.44 4.13-.9-28.71zm0-.33v-1.3l.71 1-.71.3zm.53 26.79l-.44-2.83h-.31l.81 5.15-7.68 4.38-25.84-15.14 2-2.65 30.65-15.25.81 26.34zm-31.07-11.59l21.31-28.97 8.86 12 .06 1.88-30.23 15.09zm21.51-29.18l7.95-10.78.7 22.49-8.65-11.71zm7.6-32l12 4.79-11.42 15.5-.58-20.29zm-8 32l-21.73 29.48-2.11 1-12.59-79.81 36.43 49.33zm-24.13 30.67l-.53.27-29.7-38.09 17.61-42.16 12.62 79.98zm-12.65-80.75l-74-29.42-5.28-6.78 97.69-31.13 3.88 1.52-22.29 65.81zm-149-78l.14.05.14-.43 1.54.08-1.8.63.12-.27-.14-.06zm.38-.68l.56-1.7 1.35 1.8-1.91-.1zM1305.42-138l12.89-5.26 15.37 51-28.26-45.74zm28 46l-43.05-39.84 14.74-6L1333.42-92zm-18.38-63.26l29.84.8-26.36 10.76-3.48-11.56zm3.19 11.67l-13 5.29-10.82-17.52 20.27.55 3.55 11.68zm-13.26 5.41l-14.82 6-26.49-24.52 30.41.83 10.9 17.69zm28.81 46.84l-65.2-.45-6.64-28.51 28.1-11.48 43.74 40.44zm.48 1.86l13.15 94.71-39.47-15.46 25.86-79.31.46.06zm-.36-.36l.22-.66.09.7-.31-.04zm-138.49-.31l-.13-1.39.59-.44h.34l1.43 1.89-.48 1.27-1.75-1.33zm1.63 1.63l-1.18 3.13-.41-4.34 1.59 1.21zm-.67-3.77l3-2.31-.9 2.37-2.1-.06zm2 .32l-.58 1.54-1.17-1.55 1.75.01zm-2.2-.61l-.51-.68 3-1.24-2.49 1.92zm-.25.18l-.13.11h-.56l-.07-.76.2-.08.56.73zm2 2.61l2.67 3.54-3.12-2.38.45-1.16zm.13-.34l.69-1.83 69.66.48 8 34.37-21.2 12.55-53.72-41-3.43-4.57zm134 0l-3.08-.42v.31l2.69.36-55 32.56-8-34.2 65 .45-1.61.94zm1.63-.61l-.51.76-.63-.09 1.14-.67zM1284.5-22.2l-29.08-22.19 21-12.45 8.08 34.64zm-29.63-22.23l-15.53 9.2-37.21-49.46 52.74 40.26zm.26.2l29.48 22.5.62 2.66-31.53 2.93-14.17-18.84 15.6-9.25zM1276.69-57l55.4-32.81.86.11-47.48 70.39-8.78-37.69zm56.6-32.65h.19l-25.84 79.25-22-8.63 47.65-70.62zM1307.55-10l-4.51 13.9-17.14-22.45 21.65 8.55zm-4.44 14.6l17.18 22.4-21 9-5.56-2.73 9.38-28.67zm.12-.36l4.6-14.13 39.62 15.52 1.28 9.26-28.15 12.08-17.35-22.73zm45.55 11l8.26 59.49-36.27-47.48 28.01-12.01zm-1-9.45l11.63 4.56-10.37 4.37-1.26-8.93zm0-.35l-13.17-94.8.61.08 56.12 86-31.47 13.49-12.09-4.77zm19-143.92l32.26 24.15-37.08 13.13-6.39-21.05 11.21-16.23zm-.07-.45L1346-154.45l39.1-11.55-18.39 27.07zm-5 37.91l-27.12 9.62 20.8-30.45 6.32 20.83zm.1.3l4.65 15.34-29-3.9-2.93-1.78 27.28-9.66zM1338.12-89l28.41 3.82 5 16.48-33.41-20.3zm33.54 20.74l19.4 63.9-55.49-85 1.78.24 34.31 20.86zm-35-21.25l-1.34-.18-.68-1.05 2.02 1.23zM1372.04-68l36 21.85-16.46 42.34L1372.04-68zm36.21 22l13.53 8.22-29.83 33.68 16.3-41.9zm-.16-.46l-36.19-22-5.05-16.67 53.47 7.2-12.23 31.47zm-41.34-39l-4.71-15.44 37.29-13.21 27.15 20.35-6 15.57-53.73-7.27zm60-8.14l26.38 19.77-32.38-4.36 6-15.41zm-.14-.5l-26.93-20.18 34.95-12.37-.1-.3-35.14 12.45-32.5-24.36 18.6-27.22 54.13 38.51-13.01 33.47zm-80.72-60.78l18.15-36.07 21.2 24.61-39.35 11.46zm20.58 16.09l-11 16.12-9.57-31.55 20.57 15.43zm-11.24 16.45l-20.8 30.44 11.2-62.07 9.6 31.63zm-20.3 32.6l-.43-.06-.11-.76.54.82zm-66.7-2.09l-69.46-.48 1-2.7 61.83-25.21 6.63 28.39zm-68.36-3.55l1-5.81 51.21-59.9 9.46 40.57-61.67 25.14zm-.28-.17l-1.48-2.4 2.38-2.78-.9 5.18zm-.24.2l-2.94-.62 1.49-1.74 1.45 2.36zm-.2.27l-3.74 1.53-.37-.45v-.23l1.18-1.39 2.93.54zm-4.1 4.64l-.64-.49.55-.43.09.92zm-.12-4.27l-.25-1.3 1.16.24-.91 1.06zm-.06 2.37h-1.6l1.54-.62.06.62zm0 .31v.31l-.78.59-1.19-.91 1.97.01zm.19 2l.49 5.25-18.42 48.4-23.85-23.37 40.84-31 .94.72zm-17.81 54.2l21 20.56-27.92-2.3 6.92-18.26zm.13-.31L1195.66-84l6.45 69.13-3.34-.27-21.39-21zm24.71 21.5l.27 3-3.3-3.23 3.03.23zm-6.23-70.1l1.38-3.62 3.91 3L1239.04-35l-34.33 20.33-2.3-.19-6.55-69.88zm8.84 70.31v-.15l.08.13 34.4-20.37 14.08 18.71-50.57 4.69-.3-3.2 2.31.19zm48.79-1.39l35 46.57-85.41-41.9 50.41-4.67zm.36 0l31.43-2.92 17.55 23-9.43 28.93-4.26-2.09-35.29-46.92zm39.45 49.29l-.71 2.19-3-4 3.71 1.81zm-.49 2.49l.77-2.36 5.29 2.6-4.45 1.9-1.61-2.14zm27.62-8.67l36.64 48 .36 2.58-62.73-39.52 25.73-11.06zm36.94 47.85L1349.04 15l10.75-4.6 25.09 9.82-23.72 59.83-3.79-4.91zm4.14 4.83l23.64-59.62 40.23 15.76-63.87 43.86zm64.22-43.72l32.94 12.9-96.54 30.77 63.6-43.67zm33.86 12.93l4.47-1.42-1 2.8-3.47-1.38zm-.45-.17l-33.1-13 53.16-36.5 1.14.16-16.16 47.7-5.04 1.64zm20.43-49.73l1.19-.82-.32.94-.87-.12zm-.45-.07l-3.28-.46v.3l3 .42-53.06 36.43-40.43-15.83 7.18-18.11-.29-.11-7.2 18.15-24.8-9.72 31.33-13.43 89.07 1.41-1.52.95zm-87.31-2.7l30.23-34.11 58.47 35.52-88.7-1.41zM1422.04-38l-13.63-8.29 12.28-31.57 32.75 4.41-31.4 35.45zm-35.23-128.32l52.59-8.3.08 12.54-52.67-4.24zm-.91-.17l53.16-60.9.34 52.46-53.5 8.44zm-.39 0l-21.33-24.75 8-15.89 12.55 37.13.29-.1-12.72-37.42 11.63-23.23 55.09 2.19v.73l-53.51 61.34zm-1.89-64.27l-11.43 22.83-8-23.6 19.43.77zm-19.58-1.09l-2.52-7.41 32-11.26-9.73 19.45-19.75-.78zm20 .79l9.82-19.6 17.38-6.12 27.8 27.37v.53l-55-2.18zm10-20l7.6-15.17 9.4 9.23-17 5.94zm-.42.15l-32.27 11.35-6.33-18.6 28.26-26.18 18.13 17.89-7.79 15.54zm-30 19l-20.87-.82 18.39-6.47 2.48 7.29zm.11.32l8.15 24-8 16.05-32.14-37.31 10.25-3.61 21.74.87zm0 40.34L1345.67-155l-16.47-72.85 2.28-.81 32.25 37.41zm-29.65 99.37l-15.53-51.57 26.81-10.93-11.28 62.5zm-19.2-63.74L1298.25-211l47 56.23-30.37-.85zm-.32 0l-20.37-.55-17.89-29 21.47-26.24 16.79 55.79zm-20.74-.56l-30.56-.83-5.67-5.25 18.51-22.62 17.72 28.7zm-36.38-6.39l-27.8-97.54 46.29 75-18.49 22.54zm5.35 5.55l-4.58-.12v.31l4.94.13 26.68 24.7-28 11.41-9.51-40.82h-.15l-.12-.1-51.01 59.77 10.38-60.15 46-.17 5.37 5.04zm-6.18-5.37l-45.23.17 3-17.58 42.23 17.41zm-42.15-17.72l3.07-17.76 39.08 35.15-42.15-17.39zm-3.39 17.89l-29.21.11-6.54-33.82 38.8 16-3.05 17.71zm-19 54.57l-33.42-54.07 22.94-.08 10.48 54.15zm-10.16-54.16l29.09-.1-10.45 60.59-2.65 3.1-5.37-8.69-10.62-54.9zm15.78 63.84l-1.66 1.94-1.46-.3-1.88-9.73 5 8.09zm-3.09 3.4l-1.29-1.71 1 .21.29 1.5zm0 .48l.1.14.06.66-2.34 1 .06.14-.09.13 1.49 1.13-40.81 31-10.76-10.54 52.29-23.66zM1177.04-36l-7 18.46-65.19-5.35 48.24-36.61 23.95 23.5zm-6.82 18.79l28.38 2.33 3.66 3.6-37.51 8.42 5.47-14.35zm31.86 6.29L1158.91 31l-6.87-.36 12.61-33.17 37.43-8.39zm.49-.05l41 46.46-84.24-4.49 43.24-41.97zm.64.26l85.83 42.04 3.53 4.7-.65 2-47.88-2.54-40.83-46.2zm88.53 49.05l-.1.33-.35.57L1257.73 51l-13.4-15.17 47.41 2.51zm-.71 1.32l-17.66 29.1-15.45-17.51 33.11-11.59zm-14.08 33.15l-3.37-3.81 17.18-28.3-13.81 32.11zm.09.57l10.91 12.36-16.73 1.26 5.82-13.62zm-3.63-4.11l3.4 3.85-6 13.9-8.59.64 11.19-18.39zm-2.71 18.07l-14.52 33.76-12.87-2.23L1262.04 88l8.66-.66zm36.91 47.78l-58.26 2.63 7-16.31 50.56 8.77.7 4.91zm-.36-4.85l22.3 3.87-21.64 1-.66-4.87zm-51.2-8.88l-7 16.37-17.66.79 11.78-19.4 12.88 2.24zm-6.8 16.61l58.43-2.63 1.52 11.12-81.7 47-.48-3.83 22.23-51.66zm58.79-2.6l22-1v.18l-20.54 11.77-1.46-10.95zm-.75-5.47l-3.63-26.51 26.38 29.92v.54l-22.75-3.95zm-.32 0l-50.4-8.75 14.47-33.89 17.2-1.29 15 17 3.73 26.93zm-18.3-43.9l12.16-.91 2.38 17.38-14.54-16.47zm6.78-42.45h-.3l5.64 41.19-12.37.93-11.16-12.64 14.46-33.62 2.73-1 63.14 39.78.31 2.24-56.8 4.25-5.65-41.13zm62.42 34.53l-.32-2.3 3.09 4-2.77-1.7zm2.94 2.21l-2.6.2-.28-2 2.88 1.8zm.2.3l-2.24 4-.52-3.77 2.76-.23zm.2.26l9 47-38.92 6.12 29.92-53.12zm9.1 47.34l13.39 69.65-15-.25-37.37-63.24 38.98-6.16zm13.45 70l7.11 37-22-37.25 14.89.25zm.31 0l22.59.39-15.42 36.92-7.17-37.31zm27.73 55l-15.33 8.75-5.05-25.51 20.38 16.76zm-19.48-16.41l25.84 12.79-6.12 3.4-19.72-16.19zm26.17 13l26.38 13.06-8.36 10.32-24.16-19.88 6.14-3.5zm18.07 23.82l18 14.84-.84 2-33.3 3 16.14-19.84zm17.41 17.13l1.33-.12.6 35.46-32 36.08 30.07-71.42zm1.61-1.49l1.13.93-1.11.1-.02-1.03zm0 1.34l1.44-.13 17.61 14.48-18.45 20.8-.6-35.15zm1.87-.17l32.72-3-15.34 17.29-17.38-14.29zm-.34-.28l-1.56-1.29v-1.85l6.57-15.61 29.39 14.55-1 1.15-33.4 3.05zm34.66-4l1.5.74-2.35.22.85-.96zm.21-.24l14.06-16.1 4.73 15.28-17 1.56-1.79-.74zm37.74-42.19l.6 39.78-18 1.65 17.4-41.43zm-32.2-2.49l-6.08-19.64 33.4 19.61.16-.27-33.71-19.94-3.37-10.89 18.59-4.16 25.27 34.18-2 2.54-32.26-1.43zm9.33-35.2l30.5-6.83-2.18 36.83-3.17 4-25.15-34zm25.14 34.51l1.12 1.52-2.85.67 1.73-2.19zm1.32 1.79l1.16 1.56-3.93-.91 2.77-.65zm.32-.08l1.18-.27-.1 1.73-1.08-1.46zm-.19-.27l-1.25-1.69 2.94-3.72-.3 5.09-1.39.32zm2-5.83l34.87-44 29.33 34.32-64.53 15.13.33-5.45zm0-.54l2.2-36.62 32.45-7.26-34.65 43.88zm1.87-36.73l-30.72 6.88-18.53-25.08 46.75-23.28-.13-.27-46.81 23.3-1-1.36-.72-23.32 11.7-15.88 42 16.67-2.54 42.34zm-39.58-59.39l-12.25-4.86-1-31.86 53.33-17.65-40.08 54.37zm-13.56-36.94l-43.1 14.26L1463.35 51l19.49 7.64 1.33 43.92zm-20.76-51.69l1-3 17.85-5.68.51 16.3-19.36-7.62zm1.15-3.39l16.1-47.54h.3l1.31 41.85-17.71 5.69zm-9.91-115.65l-.29.11 26.39 66-58.51-35.54 31.49-35.55 38.84 12.55-11.53 58.14-26.39-65.71zm-.65-5.25l47.86-37.76h.72l-9.95 50.22L1454-73.42zm42-83.6l91.12 1-84.09 43.5-7.03-44.5zm-.06-.45v-.47l2.41-1.32-2.41 1.79zm-.09-.8l-2.8-24.63 45.81-7.22-38.82 29.41-4.19 2.44zm-2.83-24.94l-3-25.9 48.77 18.67-45.77 7.23zm-.31 0l-53.03 8.21-.35-52.76.68-.78 49.82 19.08 2.88 26.25zm-52.58-45.41l3.84-5.16.69 6.89-4.53-1.73zm.82-38.48l37.09-13.06-33.84 45.56-3.25-32.5zm3 32.86l-4 5.39-.68-1.41v-3.54h-.31v2.89l-14.6-30.34 16.33-5.75 3.26 32.76zm-5 4v.48l-27.41-27 12.5-4.4 14.91 30.92zm-27.65-26.8l-9.51-9.39 10.06-20.09 12.06 25-12.61 4.48zm-7.27-46.44l29.8-27.62-22 43.88-7.8-16.26zm7.65 16.6l-10.13 20.22-18-17.8 20.28-18.8 7.85 16.38zm-28.62 2.41l-28.14 26.08-14.21-41.78 19.63-6.83 22.72 22.53zm-22 45.11l-19.02 6.63-13.77-.54 26.61-24.66 6.18 18.57zm-19.91 7l-9.64 3.39-3.36-3.9 13 .51zm-10 3.5l-2.13.75-1-4.36 3.13 3.61zm-2.42.85l-.21.07.11.3.17-.06 16.41 72.61-47.21-56.45 29.65-21.24 1.08 4.77zm-1.33-5l-29.39 21 6.33-27.81 23.06 6.81zm-23-7.07l6.45-28.4 16.6 35.16-23.05-6.76zm-6.63 27.78l-7.06-31.47 13.32 3.91-6.26 27.56zm-.25.34l-68.3-49.83 61.16 17.93 7.14 31.9zm0 .39l-21.48 26.25-46.8-75.79-.09-.34 68.37 49.88zm-40.53 48.95l-39.35-35.58 11-63.62.48.78 27.87 98.42zm-39.76-35.77l-24.9-22.4 35.82-40.89-10.92 63.29zm-.06.36l-3.09 17.89-38.92-16.06-.79-4.09 17.75-20.27 25.05 22.53zm-42.88-2.64l-8.25-43.55 26 23.4-17.75 20.15zm.53 4.33l-2.87-1.19 2.16-2.47.71 3.66zm.07.36l6.56 34-23.07.09-7.29-11.8 20.64-23.55 3.16 1.26zm-24 22l-26.44-42.78 47 19.37-20.56 23.41zm7.1 12.06l-17.31.07 10.36-11.69 6.95 11.62zm.19.32l34 54.91 2 10.4-1.22-.26-1.44-1.92-.25.19 1.23 1.64-92-19.27 40-45.63 17.68-.06zm-57.76 45.22l10.65-45.05 28.92-.11-39.57 45.16zm-.21-.44l-3.27-44.56 13.82-.05-10.55 44.61zm-.28.37l-26.9-44.84 23.6-.08 3.3 44.92zm-.32.07l-3.12-2.25h1.75l1.37 2.25zm-1.55-2.59h-2l-58.41-42.23 35-.12 25.41 42.35zm-2.5.05l-55.19.92-7.22-45.75.29-.08 62.12 44.91zm.42.3l3.83 2.77-55.62 22.08-3.77-23.92 55.56-.93zm-42.52 85.61l-.57.93-45.85-46.6 37.13-14.74 9.29 60.41zm-.51 1.43l.54.54-.76-.18.22-.36zm.84.92l-.81 3.57-2.64-.21 2.22-3.64 1.23.28zm.32 0l87.93-39.68 10.81 10.6-48.47 36.79-50.93-4.19.66-3.52zm50.2 8.11l65.45 5.39-5.51 14.46-122.26 27.45 62.32-47.3zm59.81 20.19l-12.58 33.07-109.09-5.74 121.67-27.33zM1151.92 31l6.69.35-10.82 10.5 4.13-10.85zm7.11.37l84.87 4.47 13.51 15.3-130.54 45.7 20.66-54.3 11.5-11.17zm98.6 20l15.6 17.67-11.33 18.66-135.41 10.1.24-.63 130.9-45.8zm4.08 36.65l-18.7 30.8-116.8-20.26.16-.41 135.34-10.13zm-135.56 9.83l-1.64.13 1.84-.65-.2.52zm-.12.32l-.13.34-1.3-.23 1.43-.11zm.07.68l116.74 20.25-11.8 19.45-62.48 2.81-42.93-41.23.47-1.28zm104.72 40l-23.9 39.36-38.08-36.58 61.98-2.78zm-23.78 39.86l8.79 8.45-12.24-2.78 3.45-5.67zm.16-.27l24-39.59 17.72-.8-22.19 51.59-10.36-2.35-9.17-8.85zm19.44 11.49l-2.18 5.08-7.61-7.3 9.79 2.22zm.31.07l.2 3.77-2.32 1.14 2.12-4.91zm.65 3.87l.39-.22 81.31-46.79 6.82 49.81-91-1.54 2.48-1.26zm82-47.18l20.5-11.75.16 62-13.81-.23-6.85-50.02zm20.66 50.53l.09 31.47-9.67-1.13-4.26-30.56 13.84.22zm.09 31.78v15l-7.32 1-2.35-17.09 9.67 1.09zm-.31-100v3.92l-26.5-30-2.44-17.81 56.8-4.26.58 4.2-27.5 49-.64-.72V129h-.3zm.92 5.46l37.32 63.14-37.76-.64-.16-62.16.6-.34zm37.5 63.45l22.41 37.91-60.27-7-.08-31.5 37.94.59zM1389.9 236l-59.28 8v-14.91l59.28 6.91zm1.12.16l5.12 25.84-65.37 37.29-.15-55.06 60.4-8.07zm5.18 26.21l6.47 32.65-71.9 6.57v-1.89l65.43-37.33zm.28-.16l15.53-8.85 24.26 19.95-16.29 20.12-17 1.56-6.5-32.78zm23.23 31.56l-13.67 16.83-3-15.33 16.67-1.5zm-3.08 71.8l-35-24.25 24.28-30 10.72 54.25zm.09.43l.65 3.3-36.68 18.56-15.33-26.45 16.06-19.85 35.3 24.44zm.31 0l.07-.1-.1-.07-10.85-54.83 14-17.28 33.43-3.06-30.37 72.11-5.57 6.23-.61-3zm3.52 3.08l-1 2.38-1.7-1.95 2.7-.43zm.36-.06l35.58-5.61.88 51.3-37.59-43 1.13-2.69zm35.89-5.66l23.87-3.76-23 54.79-.87-51.03zm24.22-3.82l48-7.57.59.84-71.71 61.77 23.12-55.04zm-.21-.28l-24 3.79-.64-36.95 18.68-21.1 21.35 17.55-15.39 36.71zm-5.77-54.47l15.55-17.53 3.18-.29 14.37 7.12-11.83 28.19-21.27-17.49zm19.32-17.87l16.53-1.51.38 1.22-3 7.17-13.91-6.88zm17.05.17l3 9.77-5.91-2.92 2.91-6.85zm.19-.45l.57-1.35 18.12-1.66.32 21.24-15.79-7.82-3.22-10.41zm18.44-43.38l28.78 37.46-28.17 2.57-.61-40.03zm29 37.74l26.55 34.55-14.74 9.21-39.92-19.76-.32-21.43 28.43-2.57zm26.74 34.79l15.86 20.65.06 3.6-30.52-15.12 14.6-9.13zm.26-.16l15.1-9.45.49 29.74-15.59-20.29zm21.29 50l-74.91-14.24 69.32-10.94 5.59 25.18zm-5.38-28.79l1.19 1.55-1.14 1.45-.05-3zm.17 3.89l30.58 28.74-.21.94-24.83-4.72-5.54-24.96zm1.22-2.09l.53.69-1.54.6 1.01-1.29zm-1.39-2.32l-.51-30.34 53.33-33.37-51.43 65.53-1.39-1.82zm-.51-30.7l-.48-28.47 48.83-4.46.31.28.21-.23-.1-.09 4.59-.42-53.36 33.39zm48.46-33.25l-2.14-2 6.71 1.56-4.57.44zm-.41 0l-48.53 4.44-.29-17.42 46.49 10.83 2.33 2.15zm-48.36 33.41l-15.28 9.56-26.49-34.34 41.26-3.77.51 28.55zm-42-25.15L1530.21 243l70.1 16.32.3 17.52-41.48 3.79zm-24.16-36.84l.13-2.12 64.67-15.17.54 32.5-65.34-15.21zm35.53-52.14l.11-.13 40.09-9-10.85 43.48-29.35-34.35zm-.06-.41l-.24.05-29.94-35 85.47-34.84-55.29 69.79zm-.58.13l-32.21 7.21 2.49-42 29.72 34.79zm-30-35.38l-41.82-16.56 40.29-54.65 6-2-4.47 73.21zm1.2-74.95l1-1.41 1.93 2.57-2.93-1.16zm-.3-.12l-57.62-22.52-.51-16.53 25.12-8 34.17 45.56-1.16 1.49zM1482.6 41.5l-1.31-41.71 1 .14 25.21 33.62-24.9 7.95zm-1.32-42v-1l.81 1.08-.81-.08zm11.61-60.27l26.38 8.52-1.25 1.91.25.17 1.3-2 3.54 1.14-41.76 48.52 11.54-58.26zm26.86 8.35l2-3.06 1.38 4.16-3.38-1.1zm2.22-3.38l35.82-54.56 28.36.53-1.22 38.14-61.45 20.41-1.51-4.52zm36-54.87l29.64-45.13-1.47 45.66-28.17-.53zm-.36 0l-54.24-1-.23-.7 84.18-43.56-29.71 45.26zm-61.3-46.88l43.17-32.85 47.8 33.9-90.97-1.05zm43.78-46.45l2.27 9-2.67 3.88.4-12.88zm-.24-2.21l-12.76-50.66 14.1 6.89-1.34 43.77zm.27 1.09l1.37-44.71 28.87 14.08-27.77 40.43-2.47-9.8zm1.08-45.2l-14.16-6.92-7-27.59 22.32-3.52-1.16 38.03zm-14.57-7.11l-44-21.51 37.16-5.86 6.84 27.37zm.1.39l13.08 52-.43 14-56.87-87.55 44.22 21.55zm12.4 66.14l-49-18.77-7.81-68.71 56.81 87.48zm-49.34-18.9l-44.75-17.1-.74-7.39 35.18-47.34 2.43 2.7 7.88 69.13zm-10.11-72.1l1.69-2.27-.25-.19-1.65 2.22-44.86-49.77.26-.32 68.82-15.77-21.65 68.7-2.36-2.6zm-.4 0l-.83 1.12-37.41 13.22-6.39-63.87 44.63 49.53zm-38.58 14.41l-16.44 5.77-12.17-25.28 22.22-44.38 6.39 63.89zm-36.75-36.41l-7.55-15.68 32.82-11.37 4-.91.86.06-30.13 27.9zm29.22-28.27l-44.47-3.4-27.5-57.13.63-.12 71.89 60.52-.55.13zm-37.2 12.42l-35.55 12.32-32.94-32.49 61 4.65 7.49 15.52zm-35.88 12.43l-19.42 6.73-13.24-38.95 32.66 32.22zm-19.71 6.84l-24 8.33 10.77-47.39 13.23 39.06zm.1.29l14.25 41.9-26.82 24.86-16.87-35.57 5.17-22.72 24.27-8.47zm-29.61 30.67l-8.28-17.48 13.32-4.61-5.04 22.09zm-.11.49l-6.54 28.77-13.46-3.95-8.06-36 19.6-6.8 8.46 17.98zm-28.13-11.44l-6.82-30.45 12-6.78 14.38 30.46-19.56 6.77zm-.29.1l-50 17.32.1.29 49.93-17.3 8 35.75-61.34-18-.19-.65 7.67-25.77 39-22.05 6.83 30.41zm-53.61 16.88l-.52-1.83-.29.08.65 2.3-.08.27-9.45-16.07 17.16-9.71-7.47 24.96zm-.47 1l-34.61-2 25.1-14.2 9.51 16.2zm0 .31l-36 41.06-26.29-23.65 1.09-4.62 26.11-14.77 35.09 1.98zm-62.49 17.05l-1.4-2.53 1-.72 1.41-.8-1.01 4.05zm-.08.47l8.54 44.15-2.4 2.73-47.23-19.49 39.44-30.13 1.65 2.74zm-14.79 70.77L1140.48-162l-29.11.11 13-54.94 26.53 42.94zm-39.85 12l-13.92.05-4.14-56.45 31.05 1.29-12.99 55.11zm-18.09-56.71l-1-14.12 31.63 15.31-30.63-1.19zm3.87 56.76l-23.77.09-35.2-58.68 54.82 2.13 4.15 56.46zm-24.12.1l-35.25.12-3.42-2.38 4.33-1.17-.08-.3-4.58 1.23-.48-.35-14.4-56.51 18.65.72 35.23 58.64zm-32.43 43.6l-70.66 1.18 62.34-46.56 1.11-.3 7.21 45.68zm-8.46-45.66l-64.22 17.24-1.16-20.18 66.22 2.31-.84.63zm-64.52 17.32l-52.05 14 18.65-35.36 32.24 1.12 1.16 20.24zm-52.45 14.08l-1.33.35-2.3-36.62 22.34.78-18.71 35.49zm-.2.37l-1 1.92-.1-1.62 1.1-.3zm-1.42.38l.11 1.74-1.52-1.36 1.41-.38zm.2 2.28l6.57 14.19-81.91 3 75.34-17.19zm.36 0l54.18 12.42-47.63 1.72-6.55-14.14zm0-.33l1.31-2.48 52.25-14 1.67 29.18-55.23-12.7zm53.87-16.59l63.54-17.05L969.24-117l-1.58-29.29zm72.71 28.42l3.79 24-37.31 14.81-37.3-37.66 70.82-1.15zM1052.99-32l-.32.52-104.26-24 58.36-23.17L1052.99-32zm-.49.8l-2.29 3.76.13.08v.15l2.84.24-11.68 51.55-93-79.75 104 23.97zm1 4.25l50.63 4.16-62.28 47.27 11.65-51.43zm98.21 57.77l-4.33 11.39-41.31 40.11-64-57.28 109.64 5.78zm-45.63 51.92l17.12 15.31-82.72 48.39 65.6-63.7zm.22-.22L1147.04 43l-20.52 53.92-3.1 1.09-17.12-15.49zm19.6 16.14l-.43 1.13-1.54-1.47 1.97.34zm-.55 1.45l-.24.62-1-1.83 1.24 1.21zm-.19 1.35l22.63 40.73-14.52.65-8.82-39.5.71-1.88zm.15-.37l.28-.75 42.63 40.93-20.09.9-22.82-41.08zm43.21 40.47l38.35 36.82-3.54 5.82-36.44-8.26-18.59-33.47 20.22-.91zm34.52 43.03l-16.47 27.12-19.61-35.3 36.08 8.18zm.31.07l12.84 2.91 8 7.72-16.91 19-20.49-2.4 16.56-27.23zm21.1 10.84l23.47 23.55-40.23-4.71 16.76-18.84zm.36-.06l91.28 1.54 4.19 30.54-71.86-8.41-23.61-23.67zm95.51 32.4l2.35 17.17-42.7 5.74-31.2-31.29 71.55 8.38zm2.39 17.48l7.45 54.33-.91.52-49-49.14 42.46-5.71zm7.42 56.17l-1.88-.39 1-.54.88.93zm-.65-1.09l.72-.41.19 1.32-.91-.91zm-6.44-55.12l7.28-1 .14 55.15-7.42-54.15zm7.68 57l3.73 6.42-4.11-2.85.38-3.57zm.15-.36l71.86-6.57 3.09 15.61-24.46 30.22-46.32-32.12-4.17-7.14zm50.3 39.5l-16 19.73-29.8-51.41 45.8 31.68zm-.75 46.61l-62 31.34 46.69-57.68 15.31 26.34zm.15.27l23.47 40.39-85.58-9 62.11-31.39zm.28-.14l36.47-18.46-13.09 58.81-23.38-40.35zm36.78-18.41l1.79 2-1.19 2.82.28.12 1.13-2.68 37.61 43-52.75 13.66 13.13-58.92zm39.6 45.63L1444.4 440l-39.51-11.08 52.34-13.54zm.25.19l7.9 30.32-20.67-5.79 12.77-24.53zm.32 0l46.94 41.33-39-10.94-7.94-30.39zm.07-.54l71.94-62 59.84 85.8-131.78-23.8zm71.51-63.12l1.59-.25-1.1 1-.49-.75zm-.2-.28l-2.12-3-.25.17 2 2.92-47.68 7.52 15.28-36.4 34.68 28.52-1.91.27zm-32.62-29.12l11.86-28.26 6.15 3 16.61 53.75-34.62-28.49zm18.39-25l15.68 7.76.68 45.1-16.36-52.86zm16 7.91l39.57 19.6-35.63 22.29.16.26 35.79-22.39 30.48 15.09-69.68 11-.69-45.85zm76.42 60.58l12.67 57.11-88-71.45 75.33 14.34zm.33.06l24.68 4.69-12.07 52.08-12.61-56.77zm25 4.75l1.7.32 23.26 21.87-37.1 30.13 12.14-52.32zm2.27.43l40.11 7.62-17.16 13.95-22.95-21.57zm40.51 7.7l22.89 4.35-15.17 33.27-25.07-23.56 17.35-14.06zm.31-.26l39.19-31.82-16.5 36.14-22.69-4.32zm-.39-.07l-40.85-7.77-1.53-1.43 6.25-27 75.71 4-39.58 32.2zm-36.36-36.5l-36.46-1.93 1.49-.57.28.37.25-.19-.23-.3 38.76-15-4.09 17.62zm-34.87-2.87l-.63-.83 51.59-65.73-11.92 51.43-39.04 15.13zm51.34-66.86l28.89 35.77-40.88 15.85 11.99-51.62zm-2-43.63l18.73.78 7.94 21.53-24.57 20.66-2.1-42.97zm1.8 43.09l-8-1.85-46.93-43.46 52.78 2.2 2.15 43.11zm-8.57-2l-46-10.72-.54-32.41 46.54 43.13zm-35.7-87.32l39.07-8.75-49.89 52.06 10.82-43.31zm-.25-.26l-39.86 8.92 55-69.4-15.14 60.48zm-12.4-94.92l6.68-7.9 4.65 9.24-11.33-1.34zm6.52-8.2l-6.87 8.16-48.29-5.69v.31l48.09 5.66-57.59 68.23 4.43-73.12 51.82-20.37 8.41 16.82zm-60.47 3.13l-2.14-2.85 1.48-2-.25-.19-1.42 1.93-34-45.4 40.27-12.84 17.53 5.91-21.47 55.44zm4.39-61.5l22.1-7-5 12.83-17.1-5.83zm-.5-.16l-57.54-19.42 80.55 11.46-.27.71-22.74 7.25zm-.5.15l-40 12.74L1482.77 0l6.34.91 58.72 19.85zM1482.51-.3l-1-1.31 6 2-5-.69zm-1-1.85l42-48.74 57.94 8.56-4 21.9-95.94 18.28zm100.2-40.13l55 8.12 2.65 1.91-61.62 11.75 3.97-21.78zm0-.31l4.32-23.68-.3-.06-4.32 23.7-57.4-8.48 61-20.27 51.09 36.83-54.39-8.04zm4.72-67.21l56.56 1.06-57.77 36.9 1.21-37.96zm0-.31l1.47-45.88 55.23 46.99-56.7-1.11zm1.27-46.44l-47.89-34 76.23-22.65-28.34 56.65zm-47.87-34.28l30.75-44.76 45.28 22.11-76.03 22.65zm-20.22-94.25l-37.37 5.9 21.61-68.49 15.76 62.59zm-15.89-63.46l-3.86-3.17 4 1.22-.14 1.95zm-69.08 16h-.14l-.46-39.19 26 7.9-25.4 31.29zm-.45.11h-.15l-71.88-60.51 1.43-.28 70.09 21.31.51 39.48zm-72.34-60.74l-.95-.8 2 .62-1.05.18zm-.39.08l-.46.09-.31-.64v-.07l.77.62zm-.63.44l27.46 57.05-61-4.65 32.75-52.18.79-.22zm-33.79 52.32l-32-39.43 64.6-12.59-32.6 52.02zm-11 48.33l-13.53 4.69-14.47-30.5 38.79-22-10.79 47.81zm-28.07-26.1l-9.49-20.12 48-1.68-38.51 21.8zm-.26.15l-11.92 6.75-6-26.72 8.34-.29 9.58 20.26zm-18-20.27l-7.58-33.88 15.85 33.59-8.27.29zm5.78 27.18l-38.77 21.94 14.32-48.15 18.41-.65 6.04 26.86zm-56.86 32.18l-25.59 14.45-22.18-1.25 15.92-67.34 31.85 54.14zm-26 14.72l-25.45 14.4 3.69-15.63 21.76 1.23zm-25.82 14.61l-1.66 1 .07.13-.09-.12-.93.7-10.27-18.46 16.62.94-3.74 15.81zm-2.85 1.85l-39.58 30.24-12.08-51.24 41.26 2.33 10.4 18.67zm-39.92 30.24L1091.85-233l-2.71-37 22.8 1.29 12.1 51.27zm-32.49-15.72l-85.85-41.54 83.14 4.71 2.71 36.83zm0 .35l1 14.27-55-2.14-32.31-53.85 86.31 41.72zm-54.31 12.12l-18.54-.72-13.39-52.5 31.93 53.22zm-4.46 55.77l-69.36-58.33 55 2.14 14.36 56.19zm-.18.25L966.38-167l-3.21-56.09 69.43 58.42zM966.04-167l-32-1.11 28.86-54.75 3.14 55.86zm-32.41-1.13l-22.51-.79-1.8-29.08 53.32-25.06-29.01 54.93zm-24.36-30.23L907.04-234l55.43 10.6-53.2 25.04zm-.3.14l-47.57 22.36.06.14-.1.12 5.79 5.15-4.74-.17-2.18-8.48 19.1-60.18 27.4 5.25 2.24 35.81zm-48.89 18.56l-17.16-66.58 36.1 6.9-18.94 59.68zm1.83 8.32l-2.79-4.29.93-2.92 1.86 7.21zm-.29.11l-3.09-2.55.47-1.47 2.62 4.02zm0 .38l-3.58-1.15.46-1.46 3.12 2.61zm-3.9-1.25L820.18-184l-5.9-26 43.93 36.32-.49 1.58zm-37.87-12l-41.6-13.24-5.21-7.66 18.11-24.11 22.77 18.83 5.93 26.18zm-67.26 6.3l16.6-22.09 8.85 2.79 57.66 84.43-83.11-65.13zm83.17 65.57l-111.89-27.36 28.53-38 83.36 65.36zm-83.3-122.88l22.79-7.14 15.63 12.93-18.05 24-20.37-29.79zm25.3 37.59l-8.38-2.67 3.44-4.57 4.94 7.24zm-5.13-7.48l-3.59 4.72-63.4-20.17L752.15-235l20.48 30zm18.67-24.34l14-18.66 8.47 37.24-22.47-18.58zm-.24-.2l-15.47-12.79 29-9.07.69 3-14.22 18.86zm-15.75-13l-57.71-47.71 86.17 35.48.7 3.1-29.16 9.13zm-.35.11l-22.69 7.11-36.23-53.08.73-2.18 58.19 48.15zm-59.12-46.29l-.68-1 1.28-.77-.6 1.77zm-.86-1.25l-1.34-2 2.74 1.13-1.4.87zm.74 1.62l-12 35.43-.1-29.87 11.24-6.77.86 1.21zm.22.32l36 52.75-46.82 14.66-1.28-.41-.08-30.97 12.18-36.03zm-12.07 67.33l.77.25-.77.24v-.49zm0 .81l1.28-.4L768.87-200l-16.53 22-48.46-38-.01-3.89zm48.29 42.12l-28.62 38.1-19.41-4.74-.24-71.2 48.27 37.84zm-28.82 38.37l-19.1 25.4-.11-30.13 19.21 4.73zm-19 65.57l-.14-39.63 19.43-25.86 112.13 27.39-131.42 38.1zm74.14-123.12l41.4 13.17 16.16 71.09-57.56-84.26zm41.74 13.27l37.36 11.89-.68 2.11.3.1.67-2.12 4.2 1.34-25.66 57.94-16.19-71.26zm42.16 13.38l5.12.18 43.6 38.77-2.92.79.08.29 3.11-.83 1.73 1.54-76.47 17.4 25.75-58.14zm-25.34 58.49l83.1-3 27.38 59.11-110.48-56.11zm83.43-3l48.45-1.74-21.1 60.8-27.35-59.06zm48.73-1.62l37.28 37.64-58.44 23.17 21.16-60.81zm70.05 263.08l-91-201.42L1041.34 25l-2.09 121.65zm2.44-121.33l64.09 57.33-66.27 64.35 2.18-121.68zm81.64 73.09l1.57 2.82-.83 2.16.15.06h-.15l8.82 39.5-92.88 4.17 83.32-48.71zm-82.79 49l92.42-4.15 5.9 26.44-98.32-22.29zm92.73-4.16l14.62-.66 18.49 33.41-27.23-6.17-5.88-26.58zm6 26.86l27.35 6.2 19.87 35.77.14-.07v.15l20.51 2.41-46.3 52-21.57-96.46zm68.23 44.5l40.84 4.78 31.31 31.41-118.52 15.92 46.37-52.11zM1161.62 267l118.26-16.89 49.16 49.22-1.19 1.68L1161.62 267zm164.06 35.61l2.18-1.25 2.59.53-.4 3.75-4.37-3.03zm4.62 3.57l4.51 3.13 30.23 52.04-46.88 57.93 12.14-113.1zm49 160.37L1318.42 420l85.61 9-24.73 37.55zm.24.18l24.79-37.64 39.9 11.18-28.28 54.28-36.41-27.82zm25.33 49.76l11.22-21.49 14.19 10.84-25.41 10.65zm25.7-10.77l-14.37-11 28.33-54.39 20.91 5.86 10.6 40.47-45.47 19.06zm35.21-59.41l39.46 11.06 13.13 11.56-42.09 17.64-10.5-40.26zm135.15 373l-124.55-332.47 42.27-17.72 22.22 19.56 60.06 330.63zm-59.89-330.85L1518.97 469l11.17-4.68 27.23 7.63-16.33 16.51zm16.53-16.77l-27-7.57 58.74-24.62-31.74 32.19zm.35.09l31.94-32.4 7.8 43.54-39.74-11.14zm94.44 26.47L1598.04 483l-7.8-43.53 62.12 58.78zm-62.32-59.39l-60-86 1.44-1.24 88.56 71.86-30 15.38zm.88-.1l29.39-15.08 15.52 8-44.91 7.08zm88.49-14l-43.07 6.79-15.75-8.11 37.29-30.29 25.16 23.68-3.63 7.93zm.45-.25l3.42-7.49 3.55 3.34-6.97 4.15zm63.14 5.19l-51.18-5.08-4.48-4.21 43.86-26.13 11.8 35.42zm-6.14-39.15l-5.49 3.27-1.54-4.61 7.03 1.34zm-5.76 3.43l-44 26.21-3.7-3.47 15.25-33.43 30.83 5.86 1.62 4.83zm-1.72-5.17l-30.59-5.81 16.56-36.31 14.03 42.12zm-90.06-46.72l4.12-17.79 41.12-15.94 30.48 37.78-75.72-4.05zm75.58 3.35l-30-37.2 14.29-5.53 15.71 42.73zm-15.86-43l-14.38 5.56-29-36 24.6-20.69 18.78 51.13zm5.09-71.6l-8.87 7.45-5.53-8 14.4.55zm-9.11 7.65l-14.67 12.34-7.85-21.31 16.85.7 5.67 8.27zm-5.89-8.58l-16.75-.7-18.84-51.14 35.59 51.84zm-37.46-56l.72 1.95-1.46-2.13.74.18zm1.16 3.12l19.21 52.18-18.63-.77-2.67-54.4 2.09 2.99zm.28 51.36l-52.83-2.2 50.16-52.34 2.67 54.54zm-2.76-55l-39.22 8.78 15.14-60.59 24.08 51.81zm-9.46-80.73l28.37 3.34-42.66 24.72 14.29-28.06zm-.33 0l-14.14 27.76 1.88-29.21 12.26 1.45zm-12.52-1.82l-18-2.12-4.8-9.54 24.34-28.84.92 1-2.46 39.5zm2.56-39.91l-.75-.83.87-1-.12 1.83zm-.15-2.3l-1.42.57-1.36-1.51 2.78.94zm-3.38-1.14l1.65 1.83-32.09 12.61-15-29.77 45.44 15.33zM1596.31 62l-51.56 20.27 21.4-55.36 15.05 5.07L1596.31 62zm-24.47-48.6l9.16 18.19-14.74-5 5-13.05.58-.14zm-.41-1.09L1489.2.61l-7.49-2.53 95.64-18.23-5.92 32.46zm71.43-44.45l-71.09 44.31 5.91-32.38 65.25-12.44-.07.51zm.12-.84l-3.44.66.1-.14-2.27-1.64 5.65.83-.04.29zm.22.63v-.36l.75-.14-.75.5zm1.43-1l-1.25-.19.73-4.86h-.31l-.73 4.87-6.24-.92-51.45-37.09 58-37.07 1.25 75.26zm-1.34-76l-55.28-47 28.28-56.65 27 103.65zm-4.25-124.56l-22.62 20.19-13.31-42.85 35.93 22.66zm-23 20.17l-45.27-22.1 19.69-28.67 12.2 7.69 13.38 43.08zm-13.52-43.53l-11.88-7.5 6.58-9.58 5.3 17.08zm-7.48-78.17l28.13 22.82-25.81 37.62-15-48.43 12.68-12.01zm-.24-.19l-12.59 11.84-8.58-27.63.42-1 20.75 16.79zm-18.93-22.19l-1.95 4.86-1-.8 1.92-5 1.03.94zm34-93.69l-35.16 92.17-29.82-28.66 64.98-63.51zm-65.24 63.7l30 28.79-2 5.25.14.06h-.14l.69 2.23-23.32 58-4.52 4.25-.93-1.41-20.93-76.6 21.01-20.57zm-.22-.21l-20.93 20.44-15-55 35.93 34.56zm-36.15-34.1l15 54.78-17.5 17.09-.46-.14-1-1.56 3.96-70.17zm-.28-.48l-4 70.22-.79-1.19-.26.17 1 1.54-.07 1-4.61-1.41-29-23.74 37.73-46.59zm-.22-.22l-37.72 46.66-36.24-29.66 73.96-17zm-38 46.9l-9.58 11.84-26.14-7.92-.43-33.52 36.15 29.6zm-36.54-29.8l.43 33.57-72.6-22.08.08-.12 72.09-11.37zm-71.5 9.86l-.77 1.23-.41.07 1.18-1.3zm-1.06 3l-.5.1.31-.49.19.39zm-61.71-16l61.07 14.66.29.6-.56.9-65 12.68-11.31-13.98 15.51-14.86zm-15.82 15.09l11.32 13.77-32.32 6.3 21-20.07zm11.45 14.09l32.09 39.48-48.48 1.7-16.41-34.78 32.8-6.4zm-25.3 41.49l-18.24.64 10.49-35.24 7.75 34.6zm-81-1.52l28.72-53 44.37 19.39-10.66 35.77-63.47 2.23.13-.56 1.53-.8 1.64.91.15-.27-1.47-.82 67.17-35.59-.14-.27-67.21 35.72-1.11-.63.35-2.08zm-.82 3.45l.26-1.07.86.48-1.12.59zm.26-2.42l-.21.88-.2-.12.41-.76zm-.56 1l.28.15-.34 1.42-1.11.59 1.17-2.16zm-.31 2.65l-.29 1.21-.69-1.18.98-.03zm-1.31.07l.92 1.57-16 67.68-16.88-1-27.1-48.63 59.06-19.62zm-59.31 19.76l27 48.51-41.05-2.31-9.06-38.46 23.11-7.74zm-23.49 7.83l9 38.34-22.75-1.29-2.21-31.68 15.96-5.37zm-14 37l-83.07-4.7 80.75-26.9 2.32 31.6zm-8.18-111.4l5.84 79.48-81.15 27 75.31-106.48zm-62.23 160.27l-55.09-2.13 41.54-51 13.55 53.13zm-36.18-93.16l22.37 39.42-39.09-13.29 16.72-26.13zm-16.81 26.43l39.26 13.34-41.5 50.95 2.24-64.29zm-.3-.11l-2.23 63.88-21-72.31 23.23 8.43zm-2.52 64L902.46-311l39 14.16 21.06 72.5zM925.3-352.57l16.09 55.37-39.1-14.18 23.01-41.19zm37.35 128.93l-55.61-10.64-4.8-76.48 60.41 87.12zm-55.91-10.7l-27.29-5.22 22.51-70.91 4.78 76.13zm-27.59-5.28l-36.29-6.94-6.1-23.68 65-40.71-22.61 71.33zm-6.41-91.32l29 19.64-65.1 40.74-3.18-12.35 39.28-48.03zm-39.49 48.33l3.15 12.22-26.89 16.83 23.74-29.05zm3.23 12.54l6 23.44-33.27-6.37 27.27-17.07zm6.13 23.77l17.32 67.2-1 3.14-49.82-76.75 33.5 6.41zm16.21 70.72l-.51 1.61-44.15-36.5-8.6-37.88 3.23-4.31 50.03 77.08zm-53.35-73.16l-.63-2.78 3.55-1.11-2.92 3.89zm-.7-3.08l-.65-2.87 4.23 1.75-3.58 1.12zm-49.21-67.86l52.75 66.39-94.75-39 42-27.39zm-42.43 27.53l1.59 2.34-11.07 6.66v-12.74l9.48 3.74zm-12.8 73.37l3.23-1v3.55l-3.23-2.55zm3.12-32.28l.11 29.94-9.22-2.88 9.11-27.06zm-9.21 27.3l9.32 3v.68l-3.52 1.08-5.86-4.59.06-.17zm-.16.47l5.6 4.39-7.92 2.48 2.32-6.87z" stroke="#F6F6F6" stroke-width="2" stroke-linecap="round" stroke-linejoin="round"/><path fill="#F6F6F6" fill-rule="nonzero" d="M1571.58 12.9l.12.25-.25.09zM1502.68-111.67l-.4-.01.48-.37zM1503.03-111.83l.06.17-.09-.01zM1439.32-229.68l.12.26-.12-.12zM1439.33-229.11l.25.25-.25-.01zM1195.1-93.38v-.07l.04.06zM1330.34 133.94v-.25l.26.29zM1195.24-91.9l-.01-.09h.13zM1333.68-90.19l-.1.3-.09-.01zM1330.34 134.39h.03l-.03.02zM1480.99-.52l-.19-.02.18-.52zM1032.97-164.05l-.39.11.37-.28zM1033.27-164.16l.02.02-.02.01zM1440.07-127.89l-.09.04v-.41zM1439.33-228.56l.31.01-.31.36zM1544.97-289.07l-.16-.61.37.58zM693.8-223.9l.15.05-.02.05zM1643.31-33l.02-.18.53.08zM805.8-338.46l2.02 80.29.31-.01-2.02-80.33z"/></g><path d="M1317.26 411.91a8 8 0 1 1 2.452 15.81 8 8 0 0 1-2.452-15.81z" fill="#F9A24B" fill-rule="nonzero"/><path d="M1404.04 423.69a5.32 5.32 0 1 1-4.4 6.08 5.31 5.31 0 0 1 4.4-6.08z" fill="#31B39F" fill-rule="nonzero"/><path d="M1329.45 290.53a11.42 11.42 0 1 1-9.46 13.05 11.39 11.39 0 0 1 9.46-13.05z" fill="#60C4E3" fill-rule="nonzero"/><path d="M1417.16 363.12a6.4 6.4 0 1 1-5.3 7.31 6.38 6.38 0 0 1 5.3-7.31zM1390.92 230.79a5.32 5.32 0 1 1-4.4 6.07 5.3 5.3 0 0 1 4.4-6.07zM1531.26 346.21a5.32 5.32 0 1 1-4.4 6.08 5.29 5.29 0 0 1 4.4-6.08zM1589.78 433.87a5.32 5.32 0 1 1-4.41 6.08 5.31 5.31 0 0 1 4.41-6.08zM1620.09 418.32a5.32 5.32 0 1 1-4.4 6.08 5.31 5.31 0 0 1 4.4-6.08zM1601.6 335.11a5.32 5.32 0 1 1-4.4 6.08 5.31 5.31 0 0 1 4.4-6.08zM1679.3 419.75a5.32 5.32 0 1 1-4.41 6.08 5.31 5.31 0 0 1 4.41-6.08zM1715.15 341.12a5.32 5.32 0 1 1-4.4 6.08 5.31 5.31 0 0 1 4.4-6.08zM1655.18 266.85a5.32 5.32 0 1 1-4.41 6.08 5.31 5.31 0 0 1 4.41-6.08zM1529.62 237.62a5.32 5.32 0 1 1-4.4 6.07 5.29 5.29 0 0 1 4.4-6.07zM1599.71 221.17a5.32 5.32 0 1 1-4.4 6.08 5.31 5.31 0 0 1 4.4-6.08zM1650.36 168.32a5.32 5.32 0 1 1-4.41 6.08 5.31 5.31 0 0 1 4.41-6.08zM1539.8 151.07a5.32 5.32 0 1 1-4.4 6.08 5.31 5.31 0 0 1 4.4-6.08zM1626.04 115.94a5.32 5.32 0 1 1 1.69 10.505 5.32 5.32 0 0 1-1.69-10.505zM1544.27 77.4a5.32 5.32 0 1 1 1.69 10.505 5.32 5.32 0 0 1-1.69-10.505zM1626.25 49.51a5.3 5.3 0 0 0 5.25 4.49V43.38a5.3 5.3 0 0 0-5.25 6.13zM1571.34 7.34a5.32 5.32 0 1 1-4.4 6.07 5.3 5.3 0 0 1 4.4-6.07zM1440.65 111.69a5.32 5.32 0 1 1-4.41 6.08 5.31 5.31 0 0 1 4.41-6.08zM1453.04 190.32a9 9 0 1 1 2.834 17.776 9 9 0 0 1-2.834-17.776z" fill="#EDEDED" fill-rule="nonzero"/><path d="M1330.29 125.9a8.48 8.48 0 1 1-7 9.69 8.47 8.47 0 0 1 7-9.69z" fill="#F9A24B" fill-rule="nonzero"/><path d="M1224.24 190.09a5.32 5.32 0 1 1-4.4 6.08 5.31 5.31 0 0 1 4.4-6.08z" fill="#EDEDED" fill-rule="nonzero"/><path d="M1186.04 204.47a7.71 7.71 0 1 1-6.39 8.81 7.69 7.69 0 0 1 6.39-8.81z" fill="#F9A24B" fill-rule="nonzero"/><path d="M1159.19 253.61a13.57 13.57 0 1 1-11.23 15.51c-1.176-7.383 3.849-14.323 11.23-15.51z" fill="#31B39F" fill-rule="nonzero"/><path d="M1123.13 93a5.32 5.32 0 1 1-4.4 6.07 5.3 5.3 0 0 1 4.4-6.07zM1038.78 139.88a7.6 7.6 0 1 1 2.414 15.007 7.6 7.6 0 0 1-2.414-15.007zM1040.86 17.11a8 8 0 1 1 2.517 15.8 8 8 0 0 1-2.517-15.8zM1202.39-16.4a5.32 5.32 0 1 1-4.4 6.08 5.31 5.31 0 0 1 4.4-6.08z" fill="#EDEDED" fill-rule="nonzero"/><path d="M1293.65 29.61a8.87 8.87 0 1 1-7.35 10.14 8.85 8.85 0 0 1 7.35-10.14z" fill="#60C4E3" fill-rule="nonzero"/><path d="M1285.18-24.08a5.32 5.32 0 1 1-4.4 6.08 5.31 5.31 0 0 1 4.4-6.08z" fill="#F9A24B" fill-rule="nonzero"/><path d="M1391.3-8.52a5.32 5.32 0 1 1-4.4 6.08 5.31 5.31 0 0 1 4.4-6.08z" fill="#EDEDED" fill-rule="nonzero"/><path d="M1359.19 63.62c9.267-1.454 17.961 4.874 19.426 14.14 1.465 9.265-4.852 17.966-14.116 19.443-9.264 1.476-17.973-4.83-19.46-14.093a17 17 0 0 1 14.15-19.49z" fill="#31B39F" fill-rule="nonzero"/><path d="M1480.89-7.1a5.32 5.32 0 1 1-4.41 6.07 5.3 5.3 0 0 1 4.41-6.07zM1523.18-56.24a5.32 5.32 0 1 1-4.4 6.08 5.3 5.3 0 0 1 4.4-6.08zM1453.5-78.74a5.32 5.32 0 1 1-4.4 6.08 5.31 5.31 0 0 1 4.4-6.08zM1502.77-117.62a5.32 5.32 0 1 1 1.71 10.502 5.32 5.32 0 0 1-1.71-10.502zM1584.89-76.74a5.31 5.31 0 1 1 1.668 10.488 5.31 5.31 0 0 1-1.668-10.488zM1644.57-38.31a5.32 5.32 0 1 1-4.41 6.08 5.31 5.31 0 0 1 4.41-6.08zM1643.34-114.07a5.32 5.32 0 1 1-4.4 6.07 5.3 5.3 0 0 1 4.4-6.07zM1587.6-161.5a5.32 5.32 0 1 1-4.41 6.07 5.3 5.3 0 0 1 4.41-6.07zM1616.12-218.63a5.32 5.32 0 1 1-4.4 6.07 5.29 5.29 0 0 1 4.4-6.07zM1539.3-195.75a5.32 5.32 0 1 1-4.4 6.08 5.31 5.31 0 0 1 4.4-6.08zM1495.68-162.55a5.32 5.32 0 1 1-4.4 6.07 5.31 5.31 0 0 1 4.4-6.07zM1439.75-233.87a5.32 5.32 0 1 1-4.4 6.07 5.3 5.3 0 0 1 4.4-6.07zM1439.61-132.77a5.32 5.32 0 1 1-4.4 6.08 5.31 5.31 0 0 1 4.4-6.08zM1385.26-171.45a5.32 5.32 0 1 1-4.41 6.08 5.31 5.31 0 0 1 4.41-6.08zM1345.39-159.78a5.32 5.32 0 1 1 1.707 10.502 5.32 5.32 0 0 1-1.707-10.502zM1297.67-216.84a5.31 5.31 0 1 1-4.41 6.08 5.3 5.3 0 0 1 4.41-6.08zM1481.86-284.18a5.32 5.32 0 1 1-4.4 6.08 5.31 5.31 0 0 1 4.4-6.08zM1545.22-294.18a5.32 5.32 0 1 1-4.4 6.08 5.31 5.31 0 0 1 4.4-6.08zM1572.54-358.9a5.32 5.32 0 1 1 1.71 10.502 5.32 5.32 0 0 1-1.71-10.502zM1503.7-353.42a5.32 5.32 0 1 1-4.4 6.08 5.31 5.31 0 0 1 4.4-6.08zM1507.98-428.26a5.32 5.32 0 1 1-4.4 6.08 5.31 5.31 0 0 1 4.4-6.08zM1434.19-337.07a5.32 5.32 0 1 1 1.71 10.502 5.32 5.32 0 0 1-1.71-10.502zM1433.24-411.08a5.32 5.32 0 1 1-4.4 6.07 5.29 5.29 0 0 1 4.4-6.07zM1360.04-399.53a5.32 5.32 0 1 1-4.41 6.08 5.31 5.31 0 0 1 4.41-6.08zM1326.86-345.26a5.32 5.32 0 1 1 1.69 10.505 5.32 5.32 0 0 1-1.69-10.505zM1261.42-378.6a5.32 5.32 0 1 1-4.4 6.08 5.31 5.31 0 0 1 4.4-6.08zM1185.48-340.3a5.32 5.32 0 1 1-4.4 6.08 5.31 5.31 0 0 1 4.4-6.08zM1228.68-265.17a5.32 5.32 0 1 1-4.41 6.08 5.31 5.31 0 0 1 4.41-6.08zM1165.56-249.83a5.32 5.32 0 1 1-4.4 6.08 5.29 5.29 0 0 1 4.4-6.08zM1257.21-167.4a5.32 5.32 0 1 1-4.4 6.08 5.31 5.31 0 0 1 4.4-6.08zM1333.95-96.37a5.32 5.32 0 1 1-4.4 6.08 5.31 5.31 0 0 1 4.4-6.08zM1194.64-99.51a5.32 5.32 0 1 1-4.4 6.08 5.31 5.31 0 0 1 4.4-6.08zM1100.09-121.08a5.32 5.32 0 1 1-4.41 6.09 5.3 5.3 0 0 1 4.41-6.09zM1124.04-222.35a5.32 5.32 0 1 1 1.71 10.502 5.32 5.32 0 0 1-1.71-10.502zM962.78-228.61a5.32 5.32 0 1 1 1.69 10.505 5.32 5.32 0 0 1-1.69-10.505zM1004.7-280.08a5.32 5.32 0 1 1-4.4 6.08 5.31 5.31 0 0 1 4.4-6.08zM965.04-293.56a5.31 5.31 0 1 1 1.687 10.485 5.31 5.31 0 0 1-1.687-10.485zM901.85-316.49a5.32 5.32 0 1 1 1.69 10.505 5.32 5.32 0 0 1-1.69-10.505zM862.1-175.64a5.32 5.32 0 1 1 1.71 10.502 5.32 5.32 0 0 1-1.71-10.502zM913.25-134.67a5.32 5.32 0 1 1-4.4 6.08 5.31 5.31 0 0 1 4.4-6.08zM968.88-121.91a5.32 5.32 0 1 1-4.4 6.08 5.3 5.3 0 0 1 4.4-6.08z" fill="#EDEDED" fill-rule="nonzero"/><path d="M1053.92-36a5.32 5.32 0 1 1-4.4 6.08 5.3 5.3 0 0 1 4.4-6.08z" fill="#31B39F" fill-rule="nonzero"/><path d="M947.59-60.53a5.31 5.31 0 1 1 1.67 10.488 5.31 5.31 0 0 1-1.67-10.488z" fill="#60C4E3" fill-rule="nonzero"/><path d="M836.19-117.12a5.31 5.31 0 1 1 1.67 10.488 5.31 5.31 0 0 1-1.67-10.488zM808.58-258.11a5.32 5.32 0 1 1-4.4 6.08 5.31 5.31 0 0 1 4.4-6.08zM713.04-297.46a5.31 5.31 0 1 1 1.668 10.488 5.31 5.31 0 0 1-1.668-10.488zM1032.84-169.68a5.32 5.32 0 1 1-4.4 6.08 5.31 5.31 0 0 1 4.4-6.08zM1327.64-238.32a5.32 5.32 0 1 1-4.4 6.08 5.31 5.31 0 0 1 4.4-6.08zM1487.5 204.79a5.32 5.32 0 1 1-4.4 6.07 5.31 5.31 0 0 1 4.4-6.07zM1457.31 409.91a5.32 5.32 0 1 1-4.4 6.08 5.31 5.31 0 0 1 4.4-6.08z" fill="#EDEDED" fill-rule="nonzero"/></g></g></svg>