<svg class="balloon" viewBox="0 0 46.4 70.1" version="1.1" xmlns="http://www.w3.org/2000/svg" xml:space="preserve">
    <title>Balloon</title>
    <style type="text/css">
        .balloon_basket { fill: #26272e }
        .balloon_main { fill: #6c7ab9 }
        .balloon_highlight { fill: #fff }
    </style>

    <path class="balloon_basket" d="M29.2,56.1c0,0-0.4,2-0.7,4.9h0v7.5c0,0-0.2,1.7-1.7,1.7c-1.5,0-7.4,0-7.4,0S18,69.9,18,67.9 c0-2-0.3-6.9-0.3-6.9c-0.3-2.8-0.7-4.9-0.7-4.9l0.4,0c0.5,2.1,0.7,4.9,0.7,4.9h10c0,0,0.2-2.8,0.7-4.9L29.2,56.1z" />
    <path class="balloon_main" d="M46.4,22c-0.5-10.4-8.6-19.7-19-21.6C26.3,0.2,25.2,0,24,0c-0.2,0-0.4,0-0.6,0l0,0c1.5,1.7,1.8,3.8,2.2,5.8 c0.7,3.4,1,6.8,1.1,10.2c0.1,2.7,0.3,5.4,0.2,8.2c-0.1,4.7-0.3,9.4-0.9,14.1c-0.6,4.6-1.1,9.3-1.6,13.9c-0.1,0.6-0.2,1.3-0.2,1.9 c0,0.4-0.3,0.5-0.6,0.6c-1.6,0.1-1.6,0-1.8-1.5c-0.4-3.4-0.8-6.9-1.2-10.3c-0.4-4-1-8-1.2-12c-0.2-4.5-0.3-8.9-0.1-13.4 C19.7,12.6,20,7.8,21.4,3c0.3-1.1,0.7-2.1,1.6-3c-0.1,0-0.1,0-0.2,0c-0.1,0-0.2,0-0.3,0c0,0,0,0,0,0c-0.7-0.1-1.4,0-2.1,0.1 C10.9,1.7,4.5,7,1.1,16.1c-0.6,1.7-0.9,3.4-1.1,5.2v4.5c0.3,1.8,0.6,3.6,1.2,5.3c0.7,2.1,1.7,4,2.9,5.8c4.1,6.1,8.2,12.2,12.4,18.3 c0.2,0.4,0.4,0.7,0.6,1.1h12.1c0.1-0.1,0.2-0.2,0.2-0.4c4.3-6.3,8.5-12.7,12.8-19C45.3,32.4,46.6,27.4,46.4,22z M19.3,54.7 c-0.4,0.2-1.2,0-1.4-0.3c-0.1-0.2-0.2-0.3-0.3-0.5c-2.9-5.8-5.8-11.5-8.8-17.3C7,33,6.1,29.1,5.9,25C5.7,19.2,6.8,13.7,9.8,8.7 c2.3-3.8,5.3-6.7,9.7-8c0.5-0.1,0.9-0.2,1.4-0.4c-2.6,1.4-4.3,3.6-5.6,6.1c-1.8,3.4-2.7,7.1-3.3,10.9c-0.5,3.4-0.6,6.8-0.3,10.3 c0.3,3.8,1.3,7.5,2.5,11.1c1.8,5,3.4,10.1,5.1,15.2C19.4,54.1,19.8,54.4,19.3,54.7z M36.9,37.7c-2.8,5.4-5.5,10.9-8.3,16.3 c-0.3,0.5-0.6,0.8-1.2,0.8c-0.6,0-0.7-0.2-0.5-0.7c0.7-1.9,1.3-3.8,1.9-5.7c1.5-4.4,3-8.7,4.4-13.1c1.5-4.8,1.8-9.7,1.5-14.6 c-0.3-4.4-1.1-8.6-2.8-12.6c-1.1-2.5-2.5-4.8-4.7-6.6c-0.5-0.4-1.1-0.7-1.7-1.1c3.5,0.7,6.4,2.5,8.7,5.1c3.6,4.1,5.4,9,6.1,14.3 C41,26.1,39.9,32.1,36.9,37.7z" />

    <g class="balloon_highlight">
        <path d="M27,24.3c-0.1,4.7-0.3,9.4-0.9,14.1c-0.6,4.6-1.1,9.3-1.6,13.9c-0.1,0.6-0.2,1.3-0.2,1.9 c0,0.4-0.3,0.5-0.6,0.6c-1.6,0.1-1.6,0-1.8-1.5c-0.4-3.4-0.8-6.9-1.2-10.3c-0.4-4-1-8-1.2-12c-0.2-4.5-0.3-8.9-0.1-13.4 C19.7,12.6,20,7.8,21.4,3c0.3-1.1,0.7-2.1,1.6-3c-0.1,0-0.1,0-0.2,0l0.7,0c1.5,1.7,1.8,3.8,2.2,5.8c0.7,3.4,1,6.8,1.1,10.2 C26.9,18.8,27.1,21.5,27,24.3z" />
        <path d="M19.3,53.8c0.1,0.3,0.4,0.6,0,0.9c-0.4,0.2-1.2,0-1.4-0.3c-0.1-0.2-0.2-0.3-0.3-0.5 c-2.9-5.8-5.8-11.5-8.8-17.3C7,33,6.1,29.1,5.9,25C5.7,19.2,6.8,13.7,9.8,8.7c2.3-3.8,5.3-6.7,9.7-8c0.5-0.1,0.9-0.2,1.4-0.4 c-2.6,1.4-4.3,3.6-5.6,6.1c-1.8,3.4-2.7,7.1-3.3,10.9c-0.5,3.4-0.6,6.8-0.3,10.3c0.3,3.8,1.3,7.5,2.5,11.1 C16,43.7,17.6,48.7,19.3,53.8z" />
        <path d="M36.9,37.7c-2.8,5.4-5.5,10.9-8.3,16.3c-0.3,0.5-0.6,0.8-1.2,0.8c-0.6,0-0.7-0.2-0.5-0.7 c0.7-1.9,1.3-3.8,1.9-5.7c1.5-4.4,3-8.7,4.4-13.1c1.5-4.8,1.8-9.7,1.5-14.6c-0.3-4.4-1.1-8.6-2.8-12.6c-1.1-2.5-2.5-4.8-4.7-6.6 c-0.5-0.4-1.1-0.7-1.7-1.1c3.5,0.7,6.4,2.5,8.7,5.1c3.6,4.1,5.4,9,6.1,14.3C41,26.1,39.9,32.1,36.9,37.7z" />
        <path d="M24.5,68.3c-0.1,0-0.1,0.1-0.2,0C24.3,68.4,24.4,68.4,24.5,68.3c0.1,0.1,0.1,0.2,0.1,0.2c0,0,0.1,0.1-0.1,0.1 c0,0-0.1,0-0.1,0c0,0,0,0,0.1,0c0.1,0,0.1,0,0.1,0.1c0,0,0,0,0,0.1c0,0,0.1,0.1,0,0.1c0,0-0.1,0-0.1,0c0-0.1-0.1-0.2-0.1-0.3 c-0.1,0-0.1,0-0.2-0.1c-0.1-0.1-0.2-0.3-0.3-0.4c0,0-0.1-0.1,0-0.1c0.1,0,0.1-0.1,0.1-0.1c0,0,0-0.1,0-0.1c-0.1,0.1-0.1,0-0.1,0 c0-0.1-0.1,0-0.1,0c0,0,0.1,0,0.1,0c0,0,0.1,0.1,0,0.1c0,0,0,0,0,0c0,0,0,0,0,0.1c0,0-0.1,0-0.1,0c0-0.2-0.1-0.2-0.2-0.3 c0-0.1-0.1-0.1,0.1-0.1c-0.2,0-0.3-0.2-0.3-0.3c0,0,0,0-0.1,0c-0.1,0-0.1-0.1,0-0.2c-0.1,0-0.2-0.1-0.2-0.2 c-0.2-0.4-0.5-0.9-0.7-1.3c0-0.1-0.1-0.1-0.1-0.2c0,0,0,0,0-0.1c-0.1,0-0.1-0.2-0.2-0.3c0,0,0-0.1,0.1-0.1c0,0,0.1,0,0.1,0 c0,0,0.1,0,0.1,0c0.2,0,0.3,0,0.5,0c0.1,0,0.1,0,0.2,0c0.1-0.1,0.1-0.2,0.1-0.3c-0.1,0-0.1-0.1-0.1-0.1C23,64.2,23,64,22.9,63.8 c-0.1-0.5-0.3-1-0.4-1.5c0-0.1,0-0.2,0-0.3c0,0,0.1,0,0.1,0c0.2,0.3,0.4,0.6,0.6,0.9c0.2,0.3,0.3,0.6,0.5,0.8 c0.2,0.3,0.4,0.7,0.6,1c0.1,0.3,0.3,0.5,0.5,0.8c0.1,0.1,0.1,0.3,0.2,0.4c0.1,0.1,0,0.2-0.2,0.2c-0.1,0-0.2,0-0.3,0c0,0,0,0,0,0 c-0.1-0.1-0.3,0-0.4,0c-0.1,0-0.1,0-0.1,0.1c0,0.1,0,0.2,0,0.3c0.1,0.2,0.2,0.5,0.2,0.7c0,0.1,0.1,0.3,0.1,0.4c0,0,0,0,0,0 c0,0,0,0,0,0.1C24.4,68,24.4,68.1,24.5,68.3L24.5,68.3z M24.5,68.7C24.5,68.7,24.5,68.7,24.5,68.7C24.5,68.7,24.5,68.7,24.5,68.7 C24.5,68.7,24.5,68.7,24.5,68.7C24.4,68.7,24.5,68.7,24.5,68.7z" />
    </g>
</svg>
